<svg width="23" height="20" viewBox="0 0 23 20" fill="none" xmlns="http://www.w3.org/2000/svg">
<path d="M21.7263 17.9974H20.2516V7.49736C20.2516 7.09954 20.0936 6.71801 19.8123 6.4367C19.531 6.1554 19.1495 5.99736 18.7516 5.99736H14.6266C14.5272 5.99736 14.4318 6.03687 14.3615 6.1072C14.2912 6.17752 14.2516 6.27291 14.2516 6.37236V17.9974H12.7516V1.5358C12.7541 1.30216 12.7034 1.07101 12.6034 0.85986C12.5033 0.64871 12.3565 0.463089 12.1741 0.317049C11.9255 0.123209 11.6221 0.0126305 11.3071 0.00101832C10.9921 -0.0105939 10.6814 0.0773506 10.4191 0.252362L2.91915 5.24736C2.7134 5.38463 2.5448 5.57065 2.42834 5.78884C2.31188 6.00704 2.25118 6.25065 2.25165 6.49799V17.9974H0.77696C0.583147 17.9945 0.39544 18.0651 0.251598 18.1951C0.107756 18.325 0.018451 18.5046 0.00164788 18.6977C-0.00516392 18.8003 0.00919053 18.9032 0.0438195 19C0.0784486 19.0968 0.132612 19.1854 0.202947 19.2604C0.273282 19.3354 0.358285 19.3952 0.452677 19.4359C0.547068 19.4767 0.648832 19.4976 0.751648 19.4974H21.7516C21.8545 19.4976 21.9562 19.4767 22.0506 19.4359C22.145 19.3952 22.23 19.3354 22.3003 19.2604C22.3707 19.1854 22.4248 19.0968 22.4595 19C22.4941 18.9032 22.5085 18.8003 22.5016 18.6977C22.4848 18.5046 22.3955 18.325 22.2517 18.1951C22.1079 18.0651 21.9201 17.9945 21.7263 17.9974ZM6.37665 15.7474C6.37687 15.8502 6.35596 15.9519 6.3152 16.0463C6.27444 16.1407 6.21471 16.2257 6.13971 16.2961C6.06472 16.3664 5.97606 16.4206 5.87925 16.4552C5.78245 16.4898 5.67955 16.5042 5.57696 16.4974C5.38369 16.4805 5.20398 16.3911 5.07403 16.2471C4.94408 16.103 4.87355 15.9151 4.87665 15.7211V14.2727C4.87401 14.0789 4.94472 13.8913 5.0746 13.7475C5.20449 13.6037 5.38394 13.5144 5.57696 13.4974C5.67955 13.4906 5.78245 13.5049 5.87925 13.5395C5.97606 13.5742 6.06472 13.6283 6.13971 13.6987C6.21471 13.769 6.27444 13.854 6.3152 13.9484C6.35596 14.0428 6.37687 14.1445 6.37665 14.2474V15.7474ZM6.37665 10.4974C6.37687 10.6002 6.35596 10.7019 6.3152 10.7963C6.27444 10.8907 6.21471 10.9757 6.13971 11.0461C6.06472 11.1164 5.97606 11.1706 5.87925 11.2052C5.78245 11.2398 5.67955 11.2542 5.57696 11.2474C5.38378 11.2303 5.20419 11.1408 5.07428 10.9968C4.94437 10.8528 4.87377 10.665 4.87665 10.4711V9.02267C4.87401 8.82892 4.94472 8.64134 5.0746 8.49754C5.20449 8.35375 5.38394 8.26438 5.57696 8.24736C5.67955 8.24055 5.78245 8.2549 5.87925 8.28953C5.97606 8.32416 6.06472 8.37833 6.13971 8.44866C6.21471 8.519 6.27444 8.604 6.3152 8.69839C6.35596 8.79278 6.37687 8.89455 6.37665 8.99736V10.4974ZM10.1266 15.7474C10.1269 15.8502 10.106 15.9519 10.0652 16.0463C10.0244 16.1407 9.96471 16.2257 9.88971 16.2961C9.81472 16.3664 9.72606 16.4206 9.62925 16.4552C9.53245 16.4898 9.42955 16.5042 9.32696 16.4974C9.13402 16.4806 8.95458 16.3914 8.82467 16.2478C8.69477 16.1041 8.62402 15.9166 8.62665 15.723V14.2727C8.62424 14.0791 8.69507 13.8917 8.82493 13.7481C8.95479 13.6045 9.1341 13.5153 9.32696 13.4983C9.42955 13.4915 9.53245 13.5058 9.62925 13.5405C9.72606 13.5751 9.81472 13.6293 9.88971 13.6996C9.96471 13.7699 10.0244 13.8549 10.0652 13.9493C10.106 14.0437 10.1269 14.1455 10.1266 14.2483V15.7474ZM10.1266 10.4974C10.1269 10.6002 10.106 10.7019 10.0652 10.7963C10.0244 10.8907 9.96471 10.9757 9.88971 11.0461C9.81472 11.1164 9.72606 11.1706 9.62925 11.2052C9.53245 11.2398 9.42955 11.2542 9.32696 11.2474C9.1341 11.2304 8.95479 11.1411 8.82493 10.9975C8.69507 10.8539 8.62424 10.6666 8.62665 10.473V9.02267C8.62424 8.82908 8.69507 8.64173 8.82493 8.49814C8.95479 8.35454 9.1341 8.26531 9.32696 8.2483C9.42955 8.24149 9.53245 8.25584 9.62925 8.29047C9.72606 8.3251 9.81472 8.37926 9.88971 8.4496C9.96471 8.51993 10.0244 8.60494 10.0652 8.69933C10.106 8.79372 10.1269 8.89548 10.1266 8.9983V10.4974Z" fill="#0F172A"/>
</svg>
