<svg width="30" height="31" viewBox="0 0 30 31" fill="none" xmlns="http://www.w3.org/2000/svg">
<path d="M29.6251 15.4998C29.6205 19.0742 28.309 22.5236 25.9377 25.1982C23.5664 27.8728 20.299 29.588 16.7508 30.0207C16.6718 30.0297 16.5918 30.0218 16.5161 29.9975C16.4404 29.9733 16.3706 29.9333 16.3115 29.8801C16.2524 29.827 16.2052 29.7619 16.173 29.6892C16.1409 29.6164 16.1246 29.5377 16.1251 29.4582V18.8748H19.5001C19.6543 18.8751 19.8069 18.8437 19.9485 18.7826C20.0901 18.7215 20.2176 18.6319 20.3231 18.5194C20.4286 18.4069 20.5099 18.2739 20.5618 18.1287C20.6137 17.9835 20.6353 17.8291 20.6251 17.6753C20.6002 17.386 20.4667 17.1168 20.2515 16.9219C20.0363 16.727 19.7552 16.6209 19.4649 16.6248H16.1251V13.2498C16.1251 12.653 16.3621 12.0807 16.7841 11.6588C17.206 11.2368 17.7783 10.9998 18.3751 10.9998H20.6251C20.7793 11.0001 20.9319 10.9687 21.0735 10.9076C21.2151 10.8465 21.3426 10.7569 21.4481 10.6444C21.5536 10.5319 21.6349 10.3989 21.6868 10.2537C21.7387 10.1085 21.7603 9.95414 21.7501 9.80025C21.7252 9.51047 21.5913 9.24091 21.3755 9.04595C21.1596 8.851 20.8779 8.74516 20.5871 8.74978H18.3751C17.1816 8.74978 16.037 9.22389 15.1931 10.0678C14.3492 10.9117 13.8751 12.0563 13.8751 13.2498V16.6248H10.5001C10.3458 16.6244 10.1932 16.6558 10.0516 16.717C9.91001 16.7781 9.78251 16.8677 9.67701 16.9802C9.5715 17.0927 9.49026 17.2257 9.43832 17.3709C9.38637 17.5161 9.36484 17.6704 9.37506 17.8243C9.39994 18.1141 9.5338 18.3837 9.74964 18.5786C9.96547 18.7736 10.2472 18.8794 10.538 18.8748H13.8751V29.461C13.8755 29.5404 13.8592 29.619 13.8272 29.6916C13.7951 29.7642 13.748 29.8292 13.6891 29.8824C13.6301 29.9355 13.5605 29.9755 13.485 29.9999C13.4094 30.0242 13.3296 30.0323 13.2507 30.0235C9.60759 29.5799 6.26382 27.7846 3.88122 24.9932C1.49863 22.2017 0.250864 18.6175 0.384902 14.9499C0.666152 7.35619 6.81709 1.18275 14.4165 0.887438C16.3839 0.811227 18.3466 1.13262 20.187 1.83239C22.0274 2.53216 23.7077 3.59593 25.1275 4.96007C26.5473 6.32422 27.6774 7.96071 28.4502 9.77167C29.223 11.5826 29.6226 13.5308 29.6251 15.4998Z" fill="black"/>
</svg>
