<svg width="193" height="36" viewBox="0 0 193 36" fill="none" xmlns="http://www.w3.org/2000/svg">
<path d="M41.3615 27.8337L43.3246 21.8805H43.4805C44.5719 26.2427 47.9667 28.4858 51.1134 28.4858C52.8887 28.4858 54.1999 27.4581 54.1999 25.8068C54.1999 24.8111 53.7959 23.8756 51.9887 23.0641L46.815 20.697C43.7605 19.2653 42.1729 16.7069 42.1729 13.9677C42.1729 10.5694 44.3239 6.86279 50.5571 6.86279C53.36 6.86279 56.6024 7.76641 58.4415 8.79405L56.1984 13.9039H56.0425C54.7952 10.0697 52.0241 8.23062 49.3133 8.23062C47.0383 8.23062 46.2268 9.38228 46.2268 10.4135C46.2268 11.4447 46.7548 12.4085 48.4096 13.22L53.7392 15.743C57.1658 17.3341 58.1935 19.2937 58.1935 22.0081C58.1935 26.434 54.8909 29.9245 49.9369 29.9245C46.4394 29.9209 43.6045 29.1094 41.3615 27.8337Z" fill="#111111"/>
<path d="M59.2459 21.1009C59.2459 15.9592 62.8285 12.4688 67.7859 12.4688C72.7399 12.4688 76.3224 15.9592 76.3224 21.1009C76.3224 26.2427 72.7399 29.765 67.7859 29.765C62.8285 29.765 59.2459 26.2427 59.2459 21.1009ZM70.0893 21.1009C70.0893 15.6473 69.3735 13.6842 67.7824 13.6842C66.1913 13.6842 65.4755 15.6473 65.4755 21.1009C65.4755 26.5545 66.1913 28.5177 67.7824 28.5177C69.3699 28.5177 70.0893 26.5545 70.0893 21.1009Z" fill="#111111"/>
<path d="M77.5521 18.6098C77.5521 11.8167 82.2261 6.86279 88.6471 6.86279C91.2942 6.86279 94.0688 7.54671 96.2516 8.70192L93.6648 15.7749L93.5089 15.743C92.9809 11.5049 90.9221 9.2618 87.6195 9.2618C84.5968 9.2618 82.6974 11.5368 82.6974 15.215C82.6974 20.8564 85.9681 24.687 90.7981 24.687C93.5408 24.687 95.0362 23.8756 95.8477 21.9443L96.0674 22.0364C94.8838 27.2703 91.9533 29.9209 87.3112 29.9209C81.4784 29.9209 77.5521 25.3709 77.5521 18.6098Z" fill="#111111"/>
<path d="M109.483 12.4688V18.1101H109.327C108.923 17.8621 108.456 17.7345 107.488 17.7345C105.493 17.7345 104.154 18.67 104.154 22.6885V26.8026C104.154 28.3298 105.15 28.8897 106.305 29.1413V29.2972H96.7087V29.1413C97.5805 28.7657 98.236 28.0818 98.236 26.8026V17.6424C98.236 15.9592 97.7683 15.1194 96.7087 14.7756V14.6197L103.906 12.4688V20.1335H104.094C104.313 14.524 106.337 12.4688 109.016 12.4688H109.483Z" fill="#111111"/>
<path d="M123.605 23.468L123.853 23.5318C123.009 28.3298 119.77 29.765 117.276 29.765C113.693 29.765 110.171 26.8982 110.171 21.4447C110.171 16.2108 113.257 12.4688 117.495 12.4688C120.142 12.4688 123.916 13.872 123.916 19.7933H114.94C115.408 23.3157 117.279 25.1229 120.05 25.1229C121.613 25.1229 122.765 24.6551 123.605 23.468ZM114.82 17.9542C114.82 18.2661 114.82 18.546 114.852 18.8259H118.714C118.714 14.7118 118.059 13.4964 116.811 13.4964C115.536 13.4999 114.82 15.1512 114.82 17.9542Z" fill="#111111"/>
<path d="M142.12 25.4028C141.588 28.3617 139.597 29.765 137.166 29.765C134.983 29.765 133.707 28.6736 133.395 26.962L133.303 26.9301C132.804 28.5495 131.372 29.765 129.157 29.765C126.571 29.765 125.075 27.8337 125.075 25.7466C125.075 22.9117 127.442 20.9804 131.152 20.2009L133.208 19.765V19.2335C133.208 17.2703 132.524 15.5552 129.937 15.5552C128.006 15.5552 126.695 16.3029 125.887 18.67L125.667 18.6062C126.195 14.804 128.69 12.4688 132.68 12.4688C137.262 12.4688 139.129 15.4276 139.129 19.6055V25.091C139.129 26.1824 139.689 26.6502 140.313 26.6502C140.812 26.6502 141.528 26.4021 141.808 25.3745L142.12 25.4028ZM133.208 26.3065V20.697L132.772 20.7891C130.996 21.1328 130.405 22.4404 130.405 24.0917C130.405 25.6792 131.184 26.6466 132.336 26.6466C132.743 26.6466 133.023 26.5545 133.208 26.3065Z" fill="#111111"/>
<path d="M153.562 25.151C152.875 27.4579 151.007 29.7613 147.765 29.7613C144.806 29.7613 143.495 27.8619 143.495 25.2751V13.808H141.967V13.6521C144.366 11.5968 146.921 9.69393 149.384 7.54297H149.416V12.9965H152.283V13.7761H149.416V24.4317C149.416 25.7712 150.008 26.6429 151.099 26.6429C152.315 26.6429 152.999 25.8314 153.282 25.0554L153.562 25.151Z" fill="#111111"/>
<path d="M162.488 29.1413V29.2972H153.512V29.1413C154.384 28.7656 155.04 28.0817 155.04 26.8025V17.2348C155.04 15.7394 154.636 15.0838 153.512 14.7437V14.5877L160.961 12.4687V26.8025C160.961 28.0817 161.617 28.7656 162.488 29.1413ZM154.76 9.16605C154.76 7.45096 156.099 6.07959 157.843 6.07959C159.59 6.07959 160.929 7.45096 160.929 9.16605C160.929 10.8493 159.59 12.2206 157.843 12.2206C156.099 12.2206 154.76 10.8493 154.76 9.16605Z" fill="#111111"/>
<path d="M164.405 15.3993C163.782 14.0279 163.222 13.3724 162.35 13.0924V12.9365H172.074V13.0924C171.138 13.3086 170.702 13.748 170.702 14.4957C170.702 14.8394 170.826 15.2434 171.014 15.7112L173.509 21.6006L176 15.7112C176.188 15.2434 176.312 14.8394 176.312 14.5276C176.312 13.7799 175.876 13.3121 174.94 13.096V12.9401H179.303V13.096C178.399 13.344 177.867 13.9996 177.247 15.4029L170.954 29.6126H170.766L164.405 15.3993Z" fill="#111111"/>
<path d="M191.705 23.468L191.953 23.5318C191.113 28.3298 187.871 29.765 185.376 29.765C181.794 29.765 178.271 26.8982 178.271 21.4447C178.271 16.2108 181.358 12.4688 185.596 12.4688C188.243 12.4688 192.017 13.872 192.017 19.7933H183.045C183.512 23.3157 185.38 25.1229 188.155 25.1229C189.714 25.1229 190.865 24.6551 191.705 23.468ZM182.921 17.9542C182.921 18.2661 182.921 18.546 182.953 18.8259H186.815C186.815 14.7118 186.16 13.4964 184.916 13.4964C183.636 13.4999 182.921 15.1512 182.921 17.9542Z" fill="#111111"/>
<path d="M6.10634 18.1066C3.12972 21.3313 1.13114 25.5411 0.737802 30.3781C0.691735 30.0733 0.666931 29.7579 0.666931 29.4319V6.56872C0.666931 6.27815 0.688191 5.99466 0.723627 5.71826C1.08507 10.612 3.09783 14.8643 6.10634 18.1066Z" fill="url(#paint0_linear_429_39794)"/>
<path d="M30.2523 13.3297C21.6131 9.24037 11.9639 11.7563 6.10634 18.1029C3.09784 14.8605 1.08508 10.6082 0.723633 5.71805C1.29061 1.6004 5.92208 -0.80215 9.67828 1.36652L29.4763 12.7981C29.7456 12.954 29.9972 13.1241 30.2311 13.3155L30.2523 13.3297Z" fill="url(#paint1_linear_429_39794)"/>
<path d="M30.1885 22.7272C29.9653 22.8972 29.7279 23.0603 29.4763 23.2055L9.67826 34.6371C5.95395 36.7881 1.36501 34.4387 0.737793 30.3813C1.13113 25.5443 3.12971 21.331 6.10633 18.1099C11.9603 24.4104 21.5953 26.8802 30.1885 22.7272Z" fill="url(#paint2_linear_429_39794)"/>
<path d="M30.1885 22.7271C21.5953 26.8802 11.9603 24.4139 6.10632 18.1063C11.9639 11.7597 21.6131 9.24379 30.2523 13.3331C33.2431 15.725 33.2218 20.3636 30.1885 22.7271Z" fill="url(#paint3_linear_429_39794)"/>
<path d="M6.10634 18.1066C3.12972 21.3313 1.13114 25.5411 0.737802 30.3781C0.691735 30.0733 0.666931 29.7579 0.666931 29.4319V6.56872C0.666931 6.27815 0.688191 5.99466 0.723627 5.71826C1.08507 10.612 3.09783 14.8643 6.10634 18.1066Z" fill="url(#paint4_linear_429_39794)"/>
<path opacity="0.2" d="M8.01633 15.3036C4.92278 11.9726 2.72222 7.7274 1.93554 2.86914C1.30833 3.66645 0.872463 4.63385 0.723633 5.72173C1.08508 10.6119 3.09784 14.8677 6.10634 18.1066C11.9391 24.3893 21.5174 26.8592 30.0858 22.777C21.8186 24.2582 13.5053 21.2178 8.01633 15.3036Z" fill="#BCBEC0"/>
<path opacity="0.2" d="M8.01633 20.6967C4.92278 24.0277 2.72222 28.2729 1.93554 33.1312C1.30833 32.3339 0.872463 31.3665 0.723633 30.2786C1.08508 25.3884 3.09784 21.1326 6.10634 17.8938C11.9391 11.611 21.5174 9.1411 30.0858 13.2233C21.8186 11.7421 13.5053 14.786 8.01633 20.6967Z" fill="#BCBEC0"/>
<defs>
<linearGradient id="paint0_linear_429_39794" x1="3.38557" y1="7.98385" x2="3.38557" y2="36.4314" gradientUnits="userSpaceOnUse">
<stop stop-color="#C67CFF"/>
<stop offset="0.1658" stop-color="#CC6EF9"/>
<stop offset="0.4778" stop-color="#DC4AE8"/>
<stop offset="0.8996" stop-color="#F610CD"/>
<stop offset="1" stop-color="#FD01C6"/>
</linearGradient>
<linearGradient id="paint1_linear_429_39794" x1="1.53037" y1="-0.931562" x2="25.7596" y2="23.2977" gradientUnits="userSpaceOnUse">
<stop stop-color="#C67CFF"/>
<stop offset="1" stop-color="#3A65FF"/>
</linearGradient>
<linearGradient id="paint2_linear_429_39794" x1="20.5513" y1="32.4509" x2="5.89935" y2="17.799" gradientUnits="userSpaceOnUse">
<stop stop-color="#5783FF"/>
<stop offset="0.3306" stop-color="#5562E5"/>
<stop offset="1" stop-color="#5215A9"/>
</linearGradient>
<linearGradient id="paint3_linear_429_39794" x1="25.1655" y1="28.3176" x2="17.397" y2="13.7345" gradientUnits="userSpaceOnUse">
<stop stop-color="#3A65FF"/>
<stop offset="0.3895" stop-color="#4249DE"/>
<stop offset="1" stop-color="#5017A3"/>
</linearGradient>
<linearGradient id="paint4_linear_429_39794" x1="3.38557" y1="7.98385" x2="3.38557" y2="36.4314" gradientUnits="userSpaceOnUse">
<stop stop-color="#C67CFF"/>
<stop offset="0.1658" stop-color="#CC6EF9"/>
<stop offset="0.4778" stop-color="#DC4AE8"/>
<stop offset="0.8996" stop-color="#F610CD"/>
<stop offset="1" stop-color="#FD01C6"/>
</linearGradient>
</defs>
</svg>
