<svg width="1920" height="966" viewBox="0 0 1920 966" fill="none" xmlns="http://www.w3.org/2000/svg">
<g clip-path="url(#clip0_1063_3693)">
<rect width="1920" height="966" fill="#FDF9FF"/>
<line x1="1.36353" y1="39.9116" x2="1920" y2="39.9115" stroke="#E7E5E4" stroke-opacity="0.4" stroke-width="1.01046"/>
<line x1="1.36328" y1="178.578" x2="1920" y2="178.578" stroke="#E7E5E4" stroke-opacity="0.4" stroke-width="1.01046"/>
<line x1="1.36328" y1="316.707" x2="1920" y2="316.707" stroke="#E7E5E4" stroke-opacity="0.4" stroke-width="1.01046"/>
<line x1="1.36328" y1="455.912" x2="1920" y2="455.912" stroke="#E7E5E4" stroke-opacity="0.4" stroke-width="1.01046"/>
<line x1="1.36328" y1="594.578" x2="1920" y2="594.578" stroke="#E7E5E4" stroke-opacity="0.4" stroke-width="1.01046"/>
<line x1="1.36328" y1="727.69" x2="1920" y2="727.69" stroke="#E7E5E4" stroke-opacity="0.4" stroke-width="1.01046"/>
<line x1="1.36328" y1="871.911" x2="1920" y2="871.911" stroke="#E7E5E4" stroke-opacity="0.4" stroke-width="1.01046"/>
<line x1="240.505" y1="-4" x2="240.505" y2="971" stroke="#E7E5E4" stroke-opacity="0.4" stroke-width="1.01046"/>
<line x1="0.505228" y1="-4" x2="0.505228" y2="971" stroke="#E7E5E4" stroke-opacity="0.4" stroke-width="1.01046"/>
<line x1="480.504" y1="-4" x2="480.504" y2="971" stroke="#E7E5E4" stroke-opacity="0.4" stroke-width="1.01046"/>
<line x1="720.503" y1="-4" x2="720.503" y2="971" stroke="#E7E5E4" stroke-opacity="0.4" stroke-width="1.01046"/>
<line x1="960.503" y1="-4" x2="960.503" y2="971" stroke="#E7E5E4" stroke-opacity="0.4" stroke-width="1.01046"/>
<line x1="1200.5" y1="-4" x2="1200.5" y2="971" stroke="#E7E5E4" stroke-opacity="0.4" stroke-width="1.01046"/>
<line x1="1440.5" y1="-4" x2="1440.5" y2="971" stroke="#E7E5E4" stroke-opacity="0.4" stroke-width="1.01046"/>
<line x1="1680.5" y1="-4" x2="1680.5" y2="971" stroke="#E7E5E4" stroke-opacity="0.4" stroke-width="1.01046"/>
<line x1="1920.5" y1="-4" x2="1920.5" y2="971" stroke="#E7E5E4" stroke-opacity="0.4" stroke-width="1.01046"/>
</g>
<defs>
<clipPath id="clip0_1063_3693">
<rect width="1920" height="966" fill="white"/>
</clipPath>
</defs>
</svg>
