<svg width="30" height="31" viewBox="0 0 30 31" fill="none" xmlns="http://www.w3.org/2000/svg">
<path d="M21.75 0.875H8.25C6.16211 0.877233 4.16037 1.70764 2.684 3.184C1.20764 4.66037 0.377233 6.66211 0.375 8.75V22.25C0.377233 24.3379 1.20764 26.3396 2.684 27.816C4.16037 29.2924 6.16211 30.1228 8.25 30.125H21.75C23.8379 30.1228 25.8396 29.2924 27.316 27.816C28.7924 26.3396 29.6228 24.3379 29.625 22.25V8.75C29.6228 6.66211 28.7924 4.66037 27.316 3.184C25.8396 1.70764 23.8379 0.877233 21.75 0.875ZM15 22.25C13.665 22.25 12.3599 21.8541 11.2499 21.1124C10.1399 20.3707 9.2747 19.3165 8.76381 18.0831C8.25292 16.8497 8.11925 15.4925 8.3797 14.1831C8.64015 12.8738 9.28302 11.671 10.227 10.727C11.171 9.78302 12.3738 9.14015 13.6831 8.8797C14.9925 8.61925 16.3497 8.75292 17.5831 9.26381C18.8165 9.7747 19.8707 10.6399 20.6124 11.7499C21.3541 12.8599 21.75 14.165 21.75 15.5C21.7481 17.2896 21.0364 19.0054 19.7709 20.2709C18.5054 21.5364 16.7896 22.2481 15 22.25ZM23.4375 8.75C23.1037 8.75 22.7775 8.65103 22.5 8.46561C22.2225 8.28018 22.0062 8.01663 21.8785 7.70828C21.7507 7.39993 21.7173 7.06063 21.7824 6.73328C21.8475 6.40594 22.0083 6.10526 22.2443 5.86926C22.4803 5.63326 22.7809 5.47254 23.1083 5.40742C23.4356 5.34231 23.7749 5.37573 24.0833 5.50345C24.3916 5.63118 24.6552 5.84747 24.8406 6.12498C25.026 6.40248 25.125 6.72874 25.125 7.0625C25.125 7.51005 24.9472 7.93928 24.6307 8.25574C24.3143 8.57221 23.8851 8.75 23.4375 8.75ZM19.5 15.5C19.5 16.39 19.2361 17.26 18.7416 18.0001C18.2471 18.7401 17.5443 19.3169 16.7221 19.6575C15.8998 19.9981 14.995 20.0872 14.1221 19.9135C13.2492 19.7399 12.4474 19.3113 11.818 18.682C11.1887 18.0526 10.7601 17.2508 10.5865 16.3779C10.4128 15.505 10.5019 14.6002 10.8425 13.7779C11.1831 12.9557 11.7599 12.2529 12.4999 11.7584C13.24 11.2639 14.11 11 15 11C16.1935 11 17.3381 11.4741 18.182 12.318C19.0259 13.1619 19.5 14.3065 19.5 15.5Z" fill="black"/>
</svg>
