<svg width="30" height="31" viewBox="0 0 30 31" fill="none" xmlns="http://www.w3.org/2000/svg">
<path d="M27.375 0.875H2.625C2.02826 0.875 1.45597 1.11205 1.03401 1.53401C0.612053 1.95597 0.375 2.52826 0.375 3.125V27.875C0.375 28.4717 0.612053 29.044 1.03401 29.466C1.45597 29.8879 2.02826 30.125 2.625 30.125H27.375C27.9717 30.125 28.544 29.8879 28.966 29.466C29.3879 29.044 29.625 28.4717 29.625 27.875V3.125C29.625 2.52826 29.3879 1.95597 28.966 1.53401C28.544 1.11205 27.9717 0.875 27.375 0.875ZM10.5 22.25C10.5 22.5484 10.3815 22.8345 10.1705 23.0455C9.95952 23.2565 9.67337 23.375 9.375 23.375C9.07663 23.375 8.79048 23.2565 8.5795 23.0455C8.36853 22.8345 8.25 22.5484 8.25 22.25V13.25C8.25 12.9516 8.36853 12.6655 8.5795 12.4545C8.79048 12.2435 9.07663 12.125 9.375 12.125C9.67337 12.125 9.95952 12.2435 10.1705 12.4545C10.3815 12.6655 10.5 12.9516 10.5 13.25V22.25ZM9.375 11C9.04124 11 8.71498 10.901 8.43748 10.7156C8.15997 10.5302 7.94368 10.2666 7.81595 9.95828C7.68823 9.64993 7.65481 9.31063 7.71992 8.98328C7.78504 8.65594 7.94576 8.35526 8.18176 8.11926C8.41776 7.88326 8.71844 7.72254 9.04578 7.65742C9.37313 7.59231 9.71243 7.62573 10.0208 7.75345C10.3291 7.88118 10.5927 8.09747 10.7781 8.37498C10.9635 8.65248 11.0625 8.97874 11.0625 9.3125C11.0625 9.76005 10.8847 10.1893 10.5682 10.5057C10.2518 10.8222 9.82255 11 9.375 11ZM22.875 22.25C22.875 22.5484 22.7565 22.8345 22.5455 23.0455C22.3345 23.2565 22.0484 23.375 21.75 23.375C21.4516 23.375 21.1655 23.2565 20.9545 23.0455C20.7435 22.8345 20.625 22.5484 20.625 22.25V17.1875C20.625 16.4416 20.3287 15.7262 19.8012 15.1988C19.2738 14.6713 18.5584 14.375 17.8125 14.375C17.0666 14.375 16.3512 14.6713 15.8238 15.1988C15.2963 15.7262 15 16.4416 15 17.1875V22.25C15 22.5484 14.8815 22.8345 14.6705 23.0455C14.4595 23.2565 14.1734 23.375 13.875 23.375C13.5766 23.375 13.2905 23.2565 13.0795 23.0455C12.8685 22.8345 12.75 22.5484 12.75 22.25V13.25C12.7514 12.9744 12.8539 12.709 13.038 12.504C13.2222 12.2989 13.4751 12.1686 13.749 12.1378C14.0228 12.1069 14.2984 12.1776 14.5236 12.3365C14.7487 12.4954 14.9078 12.7314 14.9705 12.9997C15.7315 12.4834 16.6188 12.1842 17.5371 12.1342C18.4554 12.0841 19.3699 12.2852 20.1825 12.7157C20.9952 13.1462 21.6752 13.79 22.1495 14.5778C22.6239 15.3657 22.8747 16.2679 22.875 17.1875V22.25Z" fill="black"/>
</svg>
