<svg width="154" height="28" viewBox="0 0 154 28" fill="none" xmlns="http://www.w3.org/2000/svg">
<path d="M33.2892 21.8668L34.8597 17.1042H34.9844C35.8576 20.5939 38.5734 22.3884 41.0907 22.3884C42.511 22.3884 43.5599 21.5663 43.5599 20.2452C43.5599 19.4486 43.2367 18.7002 41.791 18.051L37.652 16.1573C35.2084 15.012 33.9384 12.9653 33.9384 10.7739C33.9384 8.05527 35.6591 5.09 40.6457 5.09C42.8881 5.09 45.482 5.81289 46.9533 6.635L45.1588 10.7229H45.034C44.0362 7.65555 41.8193 6.18426 39.6506 6.18426C37.8306 6.18426 37.1815 7.10559 37.1815 7.93054C37.1815 8.75548 37.6039 9.52657 38.9277 10.1758L43.1914 12.1942C45.9327 13.467 46.7548 15.0347 46.7548 17.2062C46.7548 20.747 44.1127 23.5393 40.1496 23.5393C37.3516 23.5365 35.0837 22.8873 33.2892 21.8668Z" fill="#111111"/>
<path d="M47.5968 16.4805C47.5968 12.3671 50.4628 9.57477 54.4288 9.57477C58.392 9.57477 61.258 12.3671 61.258 16.4805C61.258 20.5939 58.392 23.4118 54.4288 23.4118C50.4628 23.4118 47.5968 20.5939 47.5968 16.4805ZM56.2715 16.4805C56.2715 12.1176 55.6989 10.5471 54.426 10.5471C53.1531 10.5471 52.5805 12.1176 52.5805 16.4805C52.5805 20.8434 53.1531 22.4139 54.426 22.4139C55.696 22.4139 56.2715 20.8434 56.2715 16.4805Z" fill="#111111"/>
<path d="M62.2417 14.4876C62.2417 9.05314 65.9809 5.09 71.1177 5.09C73.2353 5.09 75.455 5.63713 77.2013 6.56129L75.1318 12.2197L75.0071 12.1942C74.5847 8.80368 72.9377 7.0092 70.2956 7.0092C67.8774 7.0092 66.3579 8.82919 66.3579 11.7718C66.3579 16.2849 68.9745 19.3494 72.8384 19.3494C75.0326 19.3494 76.2289 18.7002 76.8781 17.1552L77.0539 17.2289C76.107 21.416 73.7626 23.5365 70.0489 23.5365C65.3827 23.5365 62.2417 19.8965 62.2417 14.4876Z" fill="#111111"/>
<path d="M87.7867 9.57477V14.0879H87.662C87.3388 13.8894 86.9646 13.7874 86.1907 13.7874C84.5947 13.7874 83.5231 14.5358 83.5231 17.7505V21.0418C83.5231 22.2636 84.3197 22.7116 85.2438 22.9128V23.0376H77.567V22.9128C78.2644 22.6123 78.7889 22.0652 78.7889 21.0418V13.7137C78.7889 12.3671 78.4146 11.6953 77.567 11.4203V11.2955L83.3246 9.57477V15.7066H83.4749C83.6507 11.219 85.2694 9.57477 87.4125 9.57477H87.7867Z" fill="#111111"/>
<path d="M99.0837 18.3742L99.2821 18.4252C98.6074 22.2636 96.0163 23.4118 94.0206 23.4118C91.1545 23.4118 88.3367 21.1184 88.3367 16.7555C88.3367 12.5684 90.8058 9.57477 94.1963 9.57477C96.314 9.57477 99.3331 10.6974 99.3331 15.4344H92.1524C92.5266 18.2523 94.0234 19.6981 96.2403 19.6981C97.4905 19.6981 98.4118 19.3239 99.0837 18.3742ZM92.056 13.9631C92.056 14.2126 92.056 14.4366 92.0815 14.6605H95.1715C95.1715 11.3692 94.6471 10.3969 93.6492 10.3969C92.6287 10.3997 92.056 11.7208 92.056 13.9631Z" fill="#111111"/>
<path d="M113.896 19.922C113.471 22.2892 111.877 23.4118 109.933 23.4118C108.186 23.4118 107.166 22.5386 106.916 21.1694L106.843 21.1439C106.443 22.4394 105.298 23.4118 103.526 23.4118C101.456 23.4118 100.26 21.8668 100.26 20.197C100.26 17.9291 102.154 16.3841 105.122 15.7605L106.766 15.4118V14.9865C106.766 13.416 106.219 12.0439 104.15 12.0439C102.605 12.0439 101.556 12.6421 100.909 14.5358L100.734 14.4848C101.156 11.4429 103.152 9.57477 106.344 9.57477C110.009 9.57477 111.503 11.9419 111.503 15.2842V19.6726C111.503 20.5457 111.951 20.9199 112.45 20.9199C112.85 20.9199 113.422 20.7215 113.646 19.8994L113.896 19.922ZM106.766 20.6449V16.1573L106.417 16.231C104.997 16.506 104.524 17.5521 104.524 18.8731C104.524 20.1432 105.147 20.9171 106.069 20.9171C106.395 20.9171 106.619 20.8434 106.766 20.6449Z" fill="#111111"/>
<path d="M123.05 19.7208C122.5 21.5663 121.006 23.4089 118.412 23.4089C116.045 23.4089 114.996 21.8894 114.996 19.82V10.6464H113.774V10.5216C115.693 8.8774 117.737 7.35507 119.707 5.63431H119.733V9.99717H122.026V10.6208H119.733V19.1453C119.733 20.2169 120.206 20.9143 121.079 20.9143C122.052 20.9143 122.599 20.2651 122.826 19.6442L123.05 19.7208Z" fill="#111111"/>
<path d="M130.191 22.9128V23.0376H123.01V22.9128C123.707 22.6123 124.232 22.0652 124.232 21.0418V13.3877C124.232 12.1914 123.909 11.6669 123.01 11.3948V11.27L128.969 9.57477V21.0418C128.969 22.0652 129.493 22.6123 130.191 22.9128ZM124.008 6.93267C124.008 5.5606 125.079 4.4635 126.474 4.4635C127.872 4.4635 128.943 5.5606 128.943 6.93267C128.943 8.27923 127.872 9.37633 126.474 9.37633C125.079 9.37633 124.008 8.27923 124.008 6.93267Z" fill="#111111"/>
<path d="M131.724 11.9192C131.225 10.8221 130.778 10.2977 130.08 10.0737V9.94897H137.859V10.0737C137.111 10.2466 136.762 10.5982 136.762 11.1963C136.762 11.4713 136.861 11.7945 137.011 12.1687L139.007 16.8802L141 12.1687C141.15 11.7945 141.25 11.4713 141.25 11.2218C141.25 10.6237 140.901 10.2495 140.152 10.0765V9.95181H143.642V10.0765C142.919 10.275 142.494 10.7994 141.998 11.922L136.963 23.2899H136.813L131.724 11.9192Z" fill="#111111"/>
<path d="M153.564 18.3742L153.763 18.4252C153.091 22.2636 150.497 23.4118 148.501 23.4118C145.635 23.4118 142.817 21.1184 142.817 16.7555C142.817 12.5684 145.286 9.57477 148.677 9.57477C150.795 9.57477 153.814 10.6974 153.814 15.4344H146.636C147.01 18.2523 148.504 19.6981 150.724 19.6981C151.971 19.6981 152.892 19.3239 153.564 18.3742ZM146.537 13.9631C146.537 14.2126 146.537 14.4366 146.562 14.6605H149.652C149.652 11.3692 149.128 10.3969 148.133 10.3969C147.109 10.3997 146.537 11.7208 146.537 13.9631Z" fill="#111111"/>
<path d="M5.08504 14.085C2.70375 16.6648 1.10489 20.0326 0.790217 23.9022C0.753364 23.6584 0.733521 23.4061 0.733521 23.1453V4.85472C0.733521 4.62226 0.750529 4.39547 0.778877 4.17435C1.06803 8.0893 2.67824 11.4911 5.08504 14.085Z" fill="url(#paint0_linear_429_39584)"/>
<path d="M24.4018 10.2636C17.4904 6.99221 9.77108 9.00497 5.08504 14.0822C2.67823 11.4883 1.06803 8.08647 0.77887 4.17435C1.23245 0.880235 4.93762 -1.04181 7.94258 0.693134L23.781 9.83842C23.9964 9.96315 24.1977 10.0992 24.3848 10.2523L24.4018 10.2636Z" fill="url(#paint1_linear_429_39584)"/>
<path d="M24.3508 17.7817C24.1722 17.9178 23.9823 18.0482 23.781 18.1644L7.9426 27.3097C4.96315 29.0305 1.29199 27.151 0.790222 23.905C1.10489 20.0354 2.70376 16.6648 5.08505 14.0879C9.76825 19.1283 17.4763 21.1042 24.3508 17.7817Z" fill="url(#paint2_linear_429_39584)"/>
<path d="M24.3508 17.7817C17.4762 21.1042 9.76823 19.1311 5.08502 14.085C9.77106 9.0078 17.4904 6.99504 24.4018 10.2665C26.7945 12.18 26.7774 15.8909 24.3508 17.7817Z" fill="url(#paint3_linear_429_39584)"/>
<path d="M5.08504 14.085C2.70375 16.6648 1.10489 20.0326 0.790217 23.9022C0.753364 23.6584 0.733521 23.4061 0.733521 23.1453V4.85472C0.733521 4.62226 0.750529 4.39547 0.778877 4.17435C1.06803 8.0893 2.67824 11.4911 5.08504 14.085Z" fill="url(#paint4_linear_429_39584)"/>
<path opacity="0.2" d="M6.61303 11.8427C4.13819 9.17789 2.37774 5.78172 1.7484 1.89511C1.24662 2.53296 0.897934 3.30688 0.77887 4.17718C1.06803 8.0893 2.67823 11.494 5.08504 14.085C9.75123 19.1113 17.4139 21.0872 24.2686 17.8214C17.6548 19.0064 11.0042 16.5741 6.61303 11.8427Z" fill="#BCBEC0"/>
<path opacity="0.2" d="M6.61303 16.1573C4.13819 18.8221 2.37774 22.2183 1.7484 26.1049C1.24662 25.467 0.897934 24.6931 0.77887 23.8228C1.06803 19.9107 2.67823 16.506 5.08504 13.915C9.75123 8.88873 17.4139 6.91283 24.2686 10.1786C17.6548 8.99362 11.0042 11.4288 6.61303 16.1573Z" fill="#BCBEC0"/>
<defs>
<linearGradient id="paint0_linear_429_39584" x1="2.90843" y1="5.98682" x2="2.90843" y2="28.7448" gradientUnits="userSpaceOnUse">
<stop stop-color="#C67CFF"/>
<stop offset="0.1658" stop-color="#CC6EF9"/>
<stop offset="0.4778" stop-color="#DC4AE8"/>
<stop offset="0.8996" stop-color="#F610CD"/>
<stop offset="1" stop-color="#FD01C6"/>
</linearGradient>
<linearGradient id="paint1_linear_429_39584" x1="1.42426" y1="-1.14533" x2="20.8076" y2="18.2381" gradientUnits="userSpaceOnUse">
<stop stop-color="#C67CFF"/>
<stop offset="1" stop-color="#3A65FF"/>
</linearGradient>
<linearGradient id="paint2_linear_429_39584" x1="16.641" y1="25.5607" x2="4.91946" y2="13.8392" gradientUnits="userSpaceOnUse">
<stop stop-color="#5783FF"/>
<stop offset="0.3306" stop-color="#5562E5"/>
<stop offset="1" stop-color="#5215A9"/>
</linearGradient>
<linearGradient id="paint3_linear_429_39584" x1="20.3324" y1="22.2541" x2="14.1176" y2="10.5876" gradientUnits="userSpaceOnUse">
<stop stop-color="#3A65FF"/>
<stop offset="0.3895" stop-color="#4249DE"/>
<stop offset="1" stop-color="#5017A3"/>
</linearGradient>
<linearGradient id="paint4_linear_429_39584" x1="2.90843" y1="5.98682" x2="2.90843" y2="28.7448" gradientUnits="userSpaceOnUse">
<stop stop-color="#C67CFF"/>
<stop offset="0.1658" stop-color="#CC6EF9"/>
<stop offset="0.4778" stop-color="#DC4AE8"/>
<stop offset="0.8996" stop-color="#F610CD"/>
<stop offset="1" stop-color="#FD01C6"/>
</linearGradient>
</defs>
</svg>
