<svg width="32" height="25" viewBox="0 0 32 25" fill="none" xmlns="http://www.w3.org/2000/svg">
<path d="M30.9527 4.27625C30.8202 3.75784 30.5663 3.27835 30.212 2.87736C29.8577 2.47637 29.4131 2.16537 28.915 1.97001C24.0944 0.10813 16.4219 0.125005 16 0.125005C15.5781 0.125005 7.90562 0.10813 3.085 1.97001C2.58685 2.16537 2.1423 2.47637 1.78801 2.87736C1.43372 3.27835 1.17985 3.75784 1.04734 4.27625C0.683125 5.67969 0.25 8.24469 0.25 12.5C0.25 16.7553 0.683125 19.3203 1.04734 20.7238C1.17965 21.2424 1.43343 21.7222 1.78773 22.1234C2.14203 22.5247 2.58669 22.8359 3.085 23.0314C7.70312 24.8131 14.9312 24.875 15.9072 24.875H16.0928C17.0688 24.875 24.3011 24.8131 28.915 23.0314C29.4133 22.8359 29.858 22.5247 30.2123 22.1234C30.5666 21.7222 30.8204 21.2424 30.9527 20.7238C31.3169 19.3175 31.75 16.7553 31.75 12.5C31.75 8.24469 31.3169 5.67969 30.9527 4.27625ZM20.8122 12.9683L14.0622 17.4683C13.9775 17.5248 13.879 17.5573 13.7772 17.5622C13.6755 17.5671 13.5743 17.5444 13.4845 17.4963C13.3947 17.4482 13.3196 17.3766 13.2673 17.2892C13.215 17.2018 13.1874 17.1019 13.1875 17V8.00001C13.1874 7.89814 13.215 7.79818 13.2673 7.71078C13.3196 7.62337 13.3947 7.55181 13.4845 7.50374C13.5743 7.45566 13.6755 7.43287 13.7772 7.4378C13.879 7.44273 13.9775 7.47519 14.0622 7.53172L20.8122 12.0317C20.8893 12.0831 20.9526 12.1527 20.9964 12.2344C21.0401 12.3161 21.063 12.4073 21.063 12.5C21.063 12.5927 21.0401 12.6839 20.9964 12.7656C20.9526 12.8473 20.8893 12.9169 20.8122 12.9683Z" fill="black"/>
</svg>
