<svg width="40" height="40" viewBox="0 0 40 40" fill="none" xmlns="http://www.w3.org/2000/svg">
<path d="M0 20.01C0 8.9643 8.95431 0.00999451 20 0.00999451C31.0457 0.00999451 40 8.9643 40 20.01C40 31.0557 31.0457 40.01 20 40.01C8.95431 40.01 0 31.0557 0 20.01Z" fill="#4F16A5"/>
<path d="M29.2991 17.805C29.6379 17.7361 29.9425 17.5522 30.1613 17.2845C30.3802 17.0168 30.4998 16.6817 30.5 16.3359V14.01C30.5 13.6122 30.342 13.2306 30.0607 12.9493C29.7794 12.668 29.3978 12.51 29 12.51H11C10.6022 12.51 10.2206 12.668 9.93934 12.9493C9.65804 13.2306 9.5 13.6122 9.5 14.01V16.3359C9.50019 16.6817 9.61983 17.0168 9.83867 17.2845C10.0575 17.5522 10.3621 17.7361 10.7009 17.805C11.2076 17.9101 11.6625 18.1865 11.9891 18.5878C12.3157 18.9891 12.4941 19.4907 12.4941 20.0081C12.4941 20.5255 12.3157 21.0271 11.9891 21.4284C11.6625 21.8297 11.2076 22.1062 10.7009 22.2112C10.3615 22.2803 10.0564 22.4647 9.83748 22.7332C9.61857 23.0017 9.49933 23.3376 9.5 23.6841V26.01C9.5 26.4078 9.65804 26.7893 9.93934 27.0707C10.2206 27.352 10.6022 27.51 11 27.51H29C29.3978 27.51 29.7794 27.352 30.0607 27.0707C30.342 26.7893 30.5 26.4078 30.5 26.01V23.6841C30.4998 23.3383 30.3802 23.0032 30.1613 22.7355C29.9425 22.4678 29.6379 22.2839 29.2991 22.215C28.7924 22.1099 28.3375 21.8335 28.0109 21.4322C27.6843 21.0309 27.5059 20.5293 27.5059 20.0119C27.5059 19.4945 27.6843 18.9929 28.0109 18.5916C28.3375 18.1903 28.7924 17.9138 29.2991 17.8087V17.805ZM11 23.685C11.8472 23.5124 12.6088 23.0524 13.1557 22.3827C13.7027 21.7131 14.0015 20.8751 14.0015 20.0105C14.0015 19.1459 13.7027 18.3078 13.1557 17.6382C12.6088 16.9686 11.8472 16.5085 11 16.3359V14.01H16.25V26.01H11V23.685ZM29 23.685V26.01H17.75V14.01H29V16.335C28.1528 16.5076 27.3912 16.9676 26.8443 17.6372C26.2973 18.3069 25.9985 19.1449 25.9985 20.0095C25.9985 20.8741 26.2973 21.7122 26.8443 22.3818C27.3912 23.0514 28.1528 23.5115 29 23.6841V23.685Z" fill="white"/>
</svg>
