<svg width="72" height="72" viewBox="0 0 72 72" fill="none" xmlns="http://www.w3.org/2000/svg">
<g id="Frame">
<path id="Vector" d="M50 61H22C20.4087 61 18.8826 60.3679 17.7574 59.2426C16.6321 58.1174 16 56.5913 16 55V22L25 11H50C51.5913 11 53.1174 11.6321 54.2426 12.7574C55.3679 13.8826 56 15.4087 56 17V55C56 56.5913 55.3679 58.1174 54.2426 59.2426C53.1174 60.3679 51.5913 61 50 61Z" fill="#5A5AFF"/>
<path id="Vector_2" d="M25 20.556C25 20.939 24.8479 21.3063 24.5771 21.5771C24.3063 21.8479 23.939 22 23.556 22H16L25 11V20.556Z" fill="#B8B8FF"/>
<path id="Vector_3" d="M44.6465 30.2368C44.5355 30.1432 44.4055 30.0748 44.2655 30.0362C44.1255 29.9976 43.9788 29.9898 43.8355 30.0132L31.8355 32.0132C31.602 32.0522 31.39 32.1726 31.237 32.3532C31.084 32.5338 31 32.7628 31 32.9995V42.5558C30.3948 42.1956 29.7043 42.0035 29 41.9995C28.2089 41.9995 27.4355 42.2341 26.7777 42.6736C26.1199 43.1132 25.6072 43.7379 25.3045 44.4688C25.0017 45.1997 24.9225 46.004 25.0769 46.7799C25.2312 47.5558 25.6122 48.2685 26.1716 48.828C26.731 49.3874 27.4437 49.7683 28.2196 49.9227C28.9956 50.077 29.7998 49.9978 30.5307 49.695C31.2616 49.3923 31.8864 48.8796 32.3259 48.2218C32.7654 47.564 33 46.7907 33 45.9995V33.8462L43 32.1802V40.5559C42.3948 40.1957 41.7043 40.0036 41 39.9995C40.2089 39.9995 39.4355 40.2341 38.7777 40.6736C38.1199 41.1132 37.6072 41.7379 37.3045 42.4688C37.0017 43.1997 36.9225 44.004 37.0769 44.7799C37.2312 45.5558 37.6122 46.2685 38.1716 46.828C38.731 47.3874 39.4437 47.7683 40.2196 47.9227C40.9956 48.077 41.7998 47.9978 42.5307 47.695C43.2616 47.3923 43.8864 46.8796 44.3259 46.2218C44.7654 45.564 45 44.7907 45 43.9995V30.9995C45 30.8543 44.9684 30.7109 44.9074 30.5792C44.8463 30.4475 44.7573 30.3306 44.6465 30.2368ZM29 47.9995C28.6044 47.9995 28.2178 47.8822 27.8889 47.6625C27.56 47.4427 27.3036 47.1303 27.1522 46.7649C27.0009 46.3994 26.9613 45.9973 27.0384 45.6093C27.1156 45.2214 27.3061 44.865 27.5858 44.5853C27.8655 44.3056 28.2219 44.1151 28.6098 44.038C28.9978 43.9608 29.3999 44.0004 29.7654 44.1518C30.1308 44.3031 30.4432 44.5595 30.6629 44.8884C30.8827 45.2173 31 45.604 31 45.9995C30.9994 46.5298 30.7885 47.0381 30.4135 47.4131C30.0386 47.788 29.5302 47.9989 29 47.9995ZM41 45.9995C40.6044 45.9995 40.2178 45.8822 39.8889 45.6625C39.56 45.4427 39.3036 45.1303 39.1522 44.7649C39.0009 44.3994 38.9613 43.9973 39.0384 43.6093C39.1156 43.2214 39.3061 42.865 39.5858 42.5853C39.8655 42.3056 40.2219 42.1151 40.6098 42.038C40.9978 41.9608 41.3999 42.0004 41.7654 42.1518C42.1308 42.3031 42.4432 42.5595 42.6629 42.8884C42.8827 43.2173 43 43.604 43 43.9995C42.9994 44.5298 42.7885 45.0381 42.4135 45.4131C42.0386 45.788 41.5302 45.9989 41 45.9995Z" fill="#F3F3F3"/>
</g>
</svg>
