<svg width="48" height="48" viewBox="0 0 48 48" fill="none" xmlns="http://www.w3.org/2000/svg">
<path d="M0 24C0 10.7452 10.7452 0 24 0C37.2548 0 48 10.7452 48 24C48 37.2548 37.2548 48 24 48C10.7452 48 0 37.2548 0 24Z" fill="#5783FF"/>
<path d="M35 15H30V14C30 13.2044 29.6839 12.4413 29.1213 11.8787C28.5587 11.3161 27.7956 11 27 11H21C20.2044 11 19.4413 11.3161 18.8787 11.8787C18.3161 12.4413 18 13.2044 18 14V15H13C12.4696 15 11.9609 15.2107 11.5858 15.5858C11.2107 15.9609 11 16.4696 11 17V33C11 33.5304 11.2107 34.0391 11.5858 34.4142C11.9609 34.7893 12.4696 35 13 35H35C35.5304 35 36.0391 34.7893 36.4142 34.4142C36.7893 34.0391 37 33.5304 37 33V17C37 16.4696 36.7893 15.9609 36.4142 15.5858C36.0391 15.2107 35.5304 15 35 15ZM20 14C20 13.7348 20.1054 13.4804 20.2929 13.2929C20.4804 13.1054 20.7348 13 21 13H27C27.2652 13 27.5196 13.1054 27.7071 13.2929C27.8946 13.4804 28 13.7348 28 14V15H20V14ZM35 17V26H13V17H35Z" fill="white"/>
</svg>
