<svg width="32" height="32" viewBox="0 0 32 32" fill="none" xmlns="http://www.w3.org/2000/svg">
<path d="M0 16C0 7.16344 7.16344 0 16 0C24.8366 0 32 7.16344 32 16C32 24.8366 24.8366 32 16 32C7.16344 32 0 24.8366 0 16Z" fill="#0F172A"/>
<path d="M21 11.25H19.4012L18.625 10.0838C18.5564 9.98092 18.4634 9.89665 18.3544 9.83842C18.2454 9.78019 18.1236 9.74982 18 9.75H14C13.8764 9.74982 13.7546 9.78019 13.6456 9.83842C13.5366 9.89665 13.4436 9.98092 13.375 10.0838L12.5981 11.25H11C10.5359 11.25 10.0908 11.4344 9.76256 11.7626C9.43437 12.0908 9.25 12.5359 9.25 13V20C9.25 20.4641 9.43437 20.9092 9.76256 21.2374C10.0908 21.5656 10.5359 21.75 11 21.75H21C21.2298 21.75 21.4574 21.7047 21.6697 21.6168C21.882 21.5288 22.0749 21.3999 22.2374 21.2374C22.3999 21.0749 22.5288 20.882 22.6168 20.6697C22.7047 20.4574 22.75 20.2298 22.75 20V13C22.75 12.7702 22.7047 12.5426 22.6168 12.3303C22.5288 12.118 22.3999 11.9251 22.2374 11.7626C22.0749 11.6001 21.882 11.4712 21.6697 11.3832C21.4574 11.2953 21.2298 11.25 21 11.25ZM21.25 20C21.25 20.0663 21.2237 20.1299 21.1768 20.1768C21.1299 20.2237 21.0663 20.25 21 20.25H11C10.9337 20.25 10.8701 20.2237 10.8232 20.1768C10.7763 20.1299 10.75 20.0663 10.75 20V13C10.75 12.9337 10.7763 12.8701 10.8232 12.8232C10.8701 12.7763 10.9337 12.75 11 12.75H13C13.1236 12.7502 13.2454 12.7198 13.3544 12.6616C13.4634 12.6034 13.5564 12.5191 13.625 12.4163L14.4012 11.25H17.5981L18.375 12.4163C18.4436 12.5191 18.5366 12.6034 18.6456 12.6616C18.7546 12.7198 18.8764 12.7502 19 12.75H21C21.0663 12.75 21.1299 12.7763 21.1768 12.8232C21.2237 12.8701 21.25 12.9337 21.25 13V20ZM16 13.25C15.4067 13.25 14.8266 13.4259 14.3333 13.7556C13.8399 14.0852 13.4554 14.5538 13.2284 15.102C13.0013 15.6501 12.9419 16.2533 13.0576 16.8353C13.1734 17.4172 13.4591 17.9518 13.8787 18.3713C14.2982 18.7909 14.8328 19.0766 15.4147 19.1924C15.9967 19.3081 16.5999 19.2487 17.1481 19.0216C17.6962 18.7946 18.1648 18.4101 18.4944 17.9167C18.8241 17.4234 19 16.8433 19 16.25C18.9992 15.4546 18.6828 14.692 18.1204 14.1296C17.558 13.5672 16.7954 13.2508 16 13.25ZM16 17.75C15.7033 17.75 15.4133 17.662 15.1666 17.4972C14.92 17.3324 14.7277 17.0981 14.6142 16.824C14.5006 16.5499 14.4709 16.2483 14.5288 15.9574C14.5867 15.6664 14.7296 15.3991 14.9393 15.1893C15.1491 14.9796 15.4164 14.8367 15.7074 14.7788C15.9983 14.7209 16.2999 14.7506 16.574 14.8642C16.8481 14.9777 17.0824 15.17 17.2472 15.4166C17.412 15.6633 17.5 15.9533 17.5 16.25C17.5 16.6478 17.342 17.0294 17.0607 17.3107C16.7794 17.592 16.3978 17.75 16 17.75Z" fill="white"/>
</svg>
