<svg width="44" height="44" viewBox="0 0 44 44" fill="none" xmlns="http://www.w3.org/2000/svg">
<path d="M0 22C0 9.84974 9.84974 0 22 0C34.1503 0 44 9.84974 44 22C44 34.1503 34.1503 44 22 44C9.84974 44 0 34.1503 0 22Z" fill="#D946EF"/>
<path d="M29.5 15.75H14.5C14.1685 15.75 13.8505 15.8817 13.6161 16.1161C13.3817 16.3505 13.25 16.6685 13.25 17V27C13.25 27.3315 13.3817 27.6495 13.6161 27.8839C13.8505 28.1183 14.1685 28.25 14.5 28.25H29.5C29.8315 28.25 30.1495 28.1183 30.3839 27.8839C30.6183 27.6495 30.75 27.3315 30.75 27V17C30.75 16.6685 30.6183 16.3505 30.3839 16.1161C30.1495 15.8817 29.8315 15.75 29.5 15.75ZM21.0625 24.7063C20.5874 24.9806 20.0485 25.125 19.5 25.125C18.9514 25.125 18.4125 24.9806 17.9374 24.7064C17.4624 24.4321 17.0678 24.0376 16.7936 23.5625C16.5193 23.0875 16.3749 22.5486 16.3749 22C16.3749 21.4514 16.5193 20.9125 16.7936 20.4375C17.0678 19.9624 17.4624 19.5679 17.9374 19.2936C18.4125 19.0194 18.9514 18.875 19.5 18.875C20.0485 18.875 20.5874 19.0194 21.0625 19.2938C21.1358 19.3336 21.2005 19.3877 21.2526 19.4529C21.3047 19.5181 21.3432 19.5931 21.3658 19.6734C21.3885 19.7538 21.3948 19.8378 21.3844 19.9206C21.374 20.0034 21.3472 20.0833 21.3055 20.1556C21.2637 20.2279 21.2079 20.2911 21.1414 20.3414C21.0748 20.3918 20.9988 20.4283 20.9179 20.4488C20.837 20.4693 20.7528 20.4734 20.6703 20.4609C20.5878 20.4484 20.5086 20.4194 20.4375 20.3758C20.1525 20.2114 19.8292 20.1249 19.5001 20.125C19.171 20.1251 18.8478 20.2118 18.5629 20.3764C18.2779 20.541 18.0413 20.7777 17.8768 21.0627C17.7123 21.3477 17.6257 21.6709 17.6257 22C17.6257 22.3291 17.7123 22.6523 17.8768 22.9373C18.0413 23.2223 18.2779 23.459 18.5629 23.6236C18.8478 23.7882 19.171 23.8749 19.5001 23.875C19.8292 23.8751 20.1525 23.7886 20.4375 23.6242C20.5807 23.5465 20.7485 23.5277 20.9053 23.5719C21.0621 23.6161 21.1955 23.7198 21.277 23.8609C21.3584 24.0019 21.3816 24.1692 21.3416 24.3271C21.3015 24.4851 21.2014 24.6211 21.0625 24.7063ZM27.3125 24.7063C26.8374 24.9806 26.2985 25.125 25.75 25.125C25.2014 25.125 24.6625 24.9806 24.1874 24.7064C23.7124 24.4321 23.3178 24.0376 23.0436 23.5625C22.7693 23.0875 22.6249 22.5486 22.6249 22C22.6249 21.4514 22.7693 20.9125 23.0436 20.4375C23.3178 19.9624 23.7124 19.5679 24.1874 19.2936C24.6625 19.0194 25.2014 18.875 25.75 18.875C26.2985 18.875 26.8374 19.0194 27.3125 19.2938C27.3858 19.3336 27.4505 19.3877 27.5026 19.4529C27.5547 19.5181 27.5932 19.5931 27.6158 19.6734C27.6385 19.7538 27.6448 19.8378 27.6344 19.9206C27.624 20.0034 27.5972 20.0833 27.5555 20.1556C27.5137 20.2279 27.4579 20.2911 27.3914 20.3414C27.3248 20.3918 27.2488 20.4283 27.1679 20.4488C27.087 20.4693 27.0028 20.4734 26.9203 20.4609C26.8378 20.4484 26.7586 20.4194 26.6875 20.3758C26.4025 20.2114 26.0792 20.1249 25.7501 20.125C25.421 20.1251 25.0978 20.2118 24.8129 20.3764C24.5279 20.541 24.2913 20.7777 24.1268 21.0627C23.9623 21.3477 23.8757 21.6709 23.8757 22C23.8757 22.3291 23.9623 22.6523 24.1268 22.9373C24.2913 23.2223 24.5279 23.459 24.8129 23.6236C25.0978 23.7882 25.421 23.8749 25.7501 23.875C26.0792 23.8751 26.4025 23.7886 26.6875 23.6242C26.8307 23.5465 26.9985 23.5277 27.1553 23.5719C27.3121 23.6161 27.4455 23.7198 27.527 23.8609C27.6084 24.0019 27.6316 24.1692 27.5916 24.3271C27.5515 24.4851 27.4514 24.6211 27.3125 24.7063Z" fill="white"/>
</svg>
