<svg width="64" height="64" viewBox="0 0 64 64" fill="none" xmlns="http://www.w3.org/2000/svg">
<path d="M0 32C0 14.3269 14.3269 0 32 0C49.6731 0 64 14.3269 64 32C64 49.6731 49.6731 64 32 64C14.3269 64 0 49.6731 0 32Z" fill="url(#paint0_linear_429_7878)"/>
<g clip-path="url(#clip0_429_7878)">
<g clip-path="url(#clip1_429_7878)">
<path d="M46 30C46 22.2016 39.6236 15.8924 31.8002 16.0014C24.3652 16.105 18.1046 22.3662 18.0014 29.8012C17.8972 37.3022 23.6936 43.4728 31.0452 43.968C31.5778 44.0038 32.001 44.4196 32.001 44.9532V46.9862C32.001 47.6628 32.6682 48.1706 33.3064 47.946C40.6966 45.345 46.0002 38.2798 46 30ZM32.0002 23C33.7682 23 35.2002 24.4326 35.2002 26.2C35.2002 27.9674 33.7682 29.4 32.0002 29.4C30.2322 29.4 28.8002 27.9674 28.8002 26.2C28.8002 24.4326 30.2322 23 32.0002 23ZM36.0842 36.951C36.0302 36.9618 35.9762 36.9716 35.9222 36.9784C35.8162 36.9926 35.7102 36.9998 35.6002 36.9998H28.4002C27.0742 36.9998 26.0002 35.9256 26.0002 34.5998C26.0002 32.6116 28.4002 30.9998 32.0002 30.9998C34.2182 30.9998 35.9802 31.6116 37.0062 32.5456C37.6462 33.1286 38.0002 33.8362 38.0002 34.5998C38.0002 35.7596 37.1782 36.7274 36.0842 36.951Z" fill="white"/>
</g>
</g>
<defs>
<linearGradient id="paint0_linear_429_7878" x1="1.7485" y1="-5.40891" x2="79.3583" y2="40.7205" gradientUnits="userSpaceOnUse">
<stop stop-color="#C67CFF"/>
<stop offset="1" stop-color="#3A65FF"/>
</linearGradient>
<clipPath id="clip0_429_7878">
<rect width="32" height="32" fill="white" transform="translate(16 16)"/>
</clipPath>
<clipPath id="clip1_429_7878">
<rect width="32" height="32" fill="white" transform="translate(16 16)"/>
</clipPath>
</defs>
</svg>
