<svg width="24" height="24" viewBox="0 0 24 24" fill="none" xmlns="http://www.w3.org/2000/svg">
<path d="M0 12C0 5.37258 5.37258 0 12 0C18.6274 0 24 5.37258 24 12C24 18.6274 18.6274 24 12 24C5.37258 24 0 18.6274 0 12Z" fill="#0F172A"/>
<path d="M17.0306 15.97C17.1715 16.1109 17.2506 16.302 17.2506 16.5012C17.2506 16.7005 17.1715 16.8916 17.0306 17.0325C16.8897 17.1734 16.6986 17.2525 16.4993 17.2525C16.3001 17.2525 16.109 17.1734 15.9681 17.0325L12 13.0631L8.0306 17.0312C7.8897 17.1721 7.69861 17.2513 7.49935 17.2513C7.30009 17.2513 7.10899 17.1721 6.9681 17.0312C6.8272 16.8903 6.74805 16.6992 6.74805 16.5C6.74805 16.3007 6.8272 16.1096 6.9681 15.9687L10.9375 12.0006L6.96935 8.03122C6.82845 7.89033 6.7493 7.69923 6.7493 7.49997C6.7493 7.30072 6.82845 7.10962 6.96935 6.96872C7.11024 6.82783 7.30134 6.74867 7.5006 6.74867C7.69986 6.74867 7.89095 6.82783 8.03185 6.96872L12 10.9381L15.9693 6.9681C16.1102 6.8272 16.3013 6.74805 16.5006 6.74805C16.6999 6.74805 16.891 6.8272 17.0318 6.9681C17.1727 7.10899 17.2519 7.30009 17.2519 7.49935C17.2519 7.69861 17.1727 7.8897 17.0318 8.0306L13.0625 12.0006L17.0306 15.97Z" fill="white"/>
</svg>
