<svg width="24" height="24" viewBox="0 0 24 24" fill="none" xmlns="http://www.w3.org/2000/svg">
<path d="M20.25 3.375H3.75C3.25272 3.375 2.77581 3.57254 2.42417 3.92417C2.07254 4.27581 1.875 4.75272 1.875 5.25V18.75C1.875 19.2473 2.07254 19.7242 2.42417 20.0758C2.77581 20.4275 3.25272 20.625 3.75 20.625H20.25C20.7473 20.625 21.2242 20.4275 21.5758 20.0758C21.9275 19.7242 22.125 19.2473 22.125 18.75V5.25C22.125 4.75272 21.9275 4.27581 21.5758 3.92417C21.2242 3.57254 20.7473 3.375 20.25 3.375ZM4.125 9.375H10.875V14.625H4.125V9.375ZM13.125 7.125V5.625H15.375V7.125H13.125ZM10.875 7.125H8.625V5.625H10.875V7.125ZM10.875 16.875V18.375H8.625V16.875H10.875ZM13.125 16.875H15.375V18.375H13.125V16.875ZM13.125 14.625V9.375H19.875V14.625H13.125ZM19.875 7.125H17.625V5.625H19.875V7.125ZM6.375 5.625V7.125H4.125V5.625H6.375ZM4.125 16.875H6.375V18.375H4.125V16.875ZM17.625 18.375V16.875H19.875V18.375H17.625Z" fill="#4F46E5"/>
</svg>
