<svg width="120" height="120" viewBox="0 0 120 120" fill="none" xmlns="http://www.w3.org/2000/svg">
<path d="M0 60C0 26.8629 26.8629 0 60 0C93.1371 0 120 26.8629 120 60C120 93.1371 93.1371 120 60 120C26.8629 120 0 93.1371 0 60Z" fill="#0F172A"/>
<path d="M45.4812 60.144C41.3872 64.5791 38.6385 70.3691 38.0975 77.0218C38.0341 76.6026 38 76.1689 38 75.7205V44.2752C38 43.8755 38.0292 43.4856 38.078 43.1055C38.5751 49.8361 41.3434 55.6846 45.4812 60.144Z" fill="url(#paint0_linear_429_10426)"/>
<path d="M78.691 53.5743C66.8088 47.95 53.5376 51.4104 45.4813 60.1392C41.3435 55.6798 38.5752 49.8313 38.0781 43.1055C38.8579 37.4423 45.2279 34.1379 50.3941 37.1206L77.6236 52.8433C77.994 53.0577 78.34 53.2917 78.6617 53.5548L78.691 53.5743Z" fill="url(#paint1_linear_429_10426)"/>
<path d="M78.6033 66.4999C78.2962 66.7338 77.9697 66.958 77.6236 67.1578L50.3941 82.8805C45.2718 85.8389 38.9603 82.6076 38.0977 77.0272C38.6386 70.3745 41.3874 64.5796 45.4814 60.1494C53.5328 68.8149 66.7845 72.2119 78.6033 66.4999Z" fill="url(#paint2_linear_429_10426)"/>
<path d="M78.6033 66.4985C66.7845 72.2105 53.5329 68.8184 45.4814 60.1432C53.5377 51.4143 66.8089 47.954 78.6911 53.5782C82.8045 56.868 82.7753 63.2477 78.6033 66.4985Z" fill="url(#paint3_linear_429_10426)"/>
<path d="M45.4812 60.144C41.3872 64.5791 38.6385 70.3691 38.0975 77.0218C38.0341 76.6026 38 76.1689 38 75.7205V44.2752C38 43.8755 38.0292 43.4856 38.078 43.1055C38.5751 49.8361 41.3434 55.6846 45.4812 60.144Z" fill="url(#paint4_linear_429_10426)"/>
<path opacity="0.2" d="M48.1083 56.2885C43.8535 51.7071 40.8269 45.8684 39.7449 39.1865C38.8823 40.2831 38.2828 41.6136 38.0781 43.1099C38.5752 49.8356 41.3435 55.689 45.4813 60.1436C53.5035 68.7847 66.6772 72.1817 78.4619 66.5672C67.0915 68.6044 55.6577 64.4227 48.1083 56.2885Z" fill="#BCBEC0"/>
<path opacity="0.2" d="M48.1083 63.7058C43.8535 68.2871 40.8269 74.1258 39.7449 80.8077C38.8823 79.7111 38.2828 78.3806 38.0781 76.8843C38.5752 70.1586 41.3435 64.3052 45.4813 59.8506C53.5035 51.2095 66.6772 47.8125 78.4619 53.4271C67.0915 51.3898 55.6577 55.5764 48.1083 63.7058Z" fill="#BCBEC0"/>
<defs>
<linearGradient id="paint0_linear_429_10426" x1="41.7391" y1="46.2215" x2="41.7391" y2="85.3473" gradientUnits="userSpaceOnUse">
<stop stop-color="#C67CFF"/>
<stop offset="0.1658" stop-color="#CC6EF9"/>
<stop offset="0.4778" stop-color="#DC4AE8"/>
<stop offset="0.8996" stop-color="#F610CD"/>
<stop offset="1" stop-color="#FD01C6"/>
</linearGradient>
<linearGradient id="paint1_linear_429_10426" x1="39.1877" y1="33.9599" x2="72.5117" y2="67.284" gradientUnits="userSpaceOnUse">
<stop stop-color="#C67CFF"/>
<stop offset="1" stop-color="#3A65FF"/>
</linearGradient>
<linearGradient id="paint2_linear_429_10426" x1="65.3485" y1="79.8737" x2="45.1967" y2="59.7219" gradientUnits="userSpaceOnUse">
<stop stop-color="#5783FF"/>
<stop offset="0.3306" stop-color="#5562E5"/>
<stop offset="1" stop-color="#5215A9"/>
</linearGradient>
<linearGradient id="paint3_linear_429_10426" x1="71.6949" y1="74.1874" x2="61.0103" y2="54.1304" gradientUnits="userSpaceOnUse">
<stop stop-color="#3A65FF"/>
<stop offset="0.3895" stop-color="#4249DE"/>
<stop offset="1" stop-color="#5017A3"/>
</linearGradient>
<linearGradient id="paint4_linear_429_10426" x1="41.7391" y1="46.2215" x2="41.7391" y2="85.3473" gradientUnits="userSpaceOnUse">
<stop stop-color="#C67CFF"/>
<stop offset="0.1658" stop-color="#CC6EF9"/>
<stop offset="0.4778" stop-color="#DC4AE8"/>
<stop offset="0.8996" stop-color="#F610CD"/>
<stop offset="1" stop-color="#FD01C6"/>
</linearGradient>
</defs>
</svg>
