<svg width="24" height="24" viewBox="0 0 24 24" fill="none" xmlns="http://www.w3.org/2000/svg">
<path d="M14.7871 10.606C14.7314 10.5246 14.6922 10.4331 14.6719 10.3366C14.6516 10.2401 14.6505 10.1405 14.6687 10.0436C14.6869 9.94668 14.724 9.85431 14.778 9.77176C14.8319 9.68921 14.9016 9.6181 14.9831 9.56252L21.3262 5.22189C21.4905 5.12025 21.6877 5.08592 21.8767 5.12607C22.0656 5.16622 22.2318 5.27775 22.3406 5.43741C22.4494 5.59708 22.4924 5.79256 22.4606 5.98312C22.4288 6.17369 22.3247 6.34463 22.1699 6.46033L15.8259 10.801C15.7446 10.8566 15.6531 10.8956 15.5567 10.9158C15.4603 10.9361 15.3609 10.9371 15.264 10.9189C15.1672 10.9007 15.075 10.8636 14.9925 10.8098C14.91 10.7559 14.839 10.6863 14.7834 10.605L14.7871 10.606ZM22.3687 18.5813C22.3131 18.6626 22.2421 18.7322 22.1596 18.786C22.0771 18.8399 21.9848 18.877 21.888 18.8952C21.7912 18.9134 21.6918 18.9123 21.5954 18.8921C21.499 18.8718 21.4075 18.8328 21.3262 18.7772L12.7499 12.9085L8.7637 15.6356C9.06739 16.4079 9.07591 17.2651 8.78761 18.0432C8.49932 18.8214 7.93443 19.4661 7.20087 19.8541C6.46731 20.2421 5.61651 20.3463 4.81101 20.1467C4.00551 19.9471 3.30179 19.4577 2.8343 18.772C2.36681 18.0864 2.16832 17.2525 2.27675 16.4298C2.38519 15.607 2.79294 14.8531 3.42212 14.3119C4.0513 13.7708 4.85778 13.4805 5.68749 13.4964C6.5172 13.5123 7.31197 13.8333 7.91995 14.3981L11.4215 12L7.91713 9.60189C7.30915 10.1667 6.51439 10.4878 5.68468 10.5037C4.85497 10.5196 4.04848 10.2292 3.41931 9.6881C2.79013 9.14698 2.38237 8.39302 2.27394 7.57028C2.1655 6.74753 2.36399 5.91367 2.83149 5.22802C3.29898 4.54236 4.0027 4.05298 4.8082 3.85337C5.61369 3.65376 6.4645 3.75791 7.19806 4.14593C7.93162 4.53395 8.49651 5.17863 8.7848 5.95681C9.07309 6.73499 9.06458 7.5921 8.76088 8.36439L22.1671 17.5388C22.2489 17.5939 22.319 17.6646 22.3734 17.7469C22.4278 17.8292 22.4654 17.9214 22.4842 18.0182C22.5029 18.115 22.5023 18.2146 22.4825 18.3112C22.4627 18.4079 22.424 18.4996 22.3687 18.5813ZM6.74994 16.875C6.74994 16.6525 6.68396 16.435 6.56035 16.25C6.43673 16.065 6.26103 15.9208 6.05546 15.8357C5.8499 15.7505 5.6237 15.7282 5.40547 15.7716C5.18724 15.815 4.98678 15.9222 4.82945 16.0795C4.67212 16.2369 4.56497 16.4373 4.52156 16.6555C4.47815 16.8738 4.50043 17.1 4.58558 17.3055C4.67073 17.5111 4.81492 17.6868 4.99993 17.8104C5.18493 17.934 5.40244 18 5.62494 18C5.92331 18 6.20946 17.8815 6.42044 17.6705C6.63142 17.4595 6.74994 17.1734 6.74994 16.875ZM6.74994 7.12502C6.74994 6.90251 6.68396 6.68501 6.56035 6.5C6.43673 6.315 6.26103 6.1708 6.05546 6.08565C5.8499 6.00051 5.6237 5.97823 5.40547 6.02164C5.18724 6.06504 4.98678 6.17219 4.82945 6.32952C4.67212 6.48686 4.56497 6.68731 4.52156 6.90554C4.47815 7.12377 4.50043 7.34997 4.58558 7.55554C4.67073 7.7611 4.81492 7.93681 4.99993 8.06042C5.18493 8.18404 5.40244 8.25002 5.62494 8.25002C5.92331 8.25002 6.20946 8.13149 6.42044 7.92051C6.63142 7.70954 6.74994 7.42339 6.74994 7.12502Z" fill="white"/>
</svg>
