<svg width="48" height="48" viewBox="0 0 48 48" fill="none" xmlns="http://www.w3.org/2000/svg">
<path d="M0 24C0 10.7452 10.7452 0 24 0C37.2548 0 48 10.7452 48 24C48 37.2548 37.2548 48 24 48C10.7452 48 0 37.2548 0 24Z" fill="#5783FF"/>
<path d="M37 23.9999C37 24.0637 37 24.1249 37 24.1899C36.9575 25.9724 36.2962 27.9999 33.5 27.9999C30.6075 27.9999 30 25.8249 30 23.9999V18.9999C30.0003 18.8629 29.9724 18.7272 29.9181 18.6013C29.8637 18.4755 29.7841 18.3621 29.6841 18.2683C29.5841 18.1746 29.4659 18.1023 29.3368 18.0562C29.2077 18.01 29.0705 17.9909 28.9338 17.9999C28.6762 18.0221 28.4366 18.1411 28.2633 18.3329C28.09 18.5248 27.9959 18.7752 28 19.0337V19.5337C27.0972 18.7246 25.9706 18.2079 24.7684 18.0518C23.5663 17.8956 22.345 18.1073 21.2655 18.6588C20.186 19.2104 19.2989 20.0761 18.721 21.1418C18.1431 22.2074 17.9017 23.4232 18.0283 24.6288C18.155 25.8344 18.6439 26.9734 19.4307 27.8957C20.2174 28.818 21.2651 29.4803 22.4356 29.7955C23.6062 30.1106 24.8448 30.0638 25.9883 29.6612C27.1317 29.2586 28.1264 28.519 28.8412 27.5399C28.9662 27.7586 29.1075 27.9675 29.2638 28.1649C29.935 28.9999 31.2137 29.9999 33.5 29.9999C33.8861 30.0012 34.2717 29.9699 34.6525 29.9062C34.7467 29.8905 34.8433 29.9021 34.9311 29.9396C35.0189 29.9771 35.0941 30.0389 35.1479 30.1178C35.2016 30.1966 35.2317 30.2892 35.2345 30.3847C35.2373 30.4801 35.2128 30.5743 35.1637 30.6562C33.9885 32.6276 32.3124 34.253 30.3058 35.3671C28.2992 36.4813 26.0335 37.0446 23.7388 36.9999C16.8913 36.8624 11.275 31.3574 11.01 24.5137C10.9422 22.7866 11.2195 21.0632 11.8258 19.4446C12.432 17.8259 13.3549 16.3443 14.5405 15.0866C15.7262 13.8289 17.1507 12.8202 18.7308 12.1196C20.311 11.419 22.0149 11.0406 23.7431 11.0064C25.4712 10.9723 27.1888 11.2831 28.7954 11.9207C30.402 12.5583 31.8653 13.5099 33.0997 14.7197C34.3341 15.9296 35.3149 17.3735 35.9846 18.967C36.6543 20.5605 36.9995 22.2715 37 23.9999ZM20 23.9999C20 24.7911 20.2346 25.5644 20.6741 26.2222C21.1136 26.88 21.7384 27.3927 22.4693 27.6955C23.2002 27.9982 24.0044 28.0774 24.7804 27.9231C25.5563 27.7687 26.269 27.3878 26.8284 26.8284C27.3878 26.269 27.7688 25.5562 27.9231 24.7803C28.0775 24.0044 27.9983 23.2001 27.6955 22.4692C27.3928 21.7383 26.8801 21.1136 26.2223 20.6741C25.5645 20.2345 24.7911 19.9999 24 19.9999C22.9391 19.9999 21.9217 20.4214 21.1716 21.1715C20.4214 21.9217 20 22.9391 20 23.9999Z" fill="white"/>
</svg>
