<svg width="48" height="48" viewBox="0 0 48 48" fill="none" xmlns="http://www.w3.org/2000/svg">
<path d="M0 24C0 10.7452 10.7452 0 24 0C37.2548 0 48 10.7452 48 24C48 37.2548 37.2548 48 24 48C10.7452 48 0 37.2548 0 24Z" fill="#F59E0B"/>
<path d="M38.7499 20.3413L31.7499 12.3412C31.6563 12.2344 31.541 12.1486 31.4117 12.0898C31.2824 12.0309 31.142 12.0003 30.9999 12H16.9999C16.8579 12.0003 16.7175 12.0309 16.5882 12.0898C16.4588 12.1486 16.3435 12.2344 16.2499 12.3412L9.24994 20.3413C9.08664 20.5277 8.9984 20.7681 9.00232 21.016C9.00625 21.2638 9.10207 21.5013 9.2712 21.6825L23.2712 36.6825C23.3648 36.7828 23.478 36.8628 23.6038 36.9175C23.7296 36.9722 23.8653 37.0004 24.0024 37.0004C24.1396 37.0004 24.2753 36.9722 24.4011 36.9175C24.5269 36.8628 24.6401 36.7828 24.7337 36.6825L38.7337 21.6825C38.9021 21.5007 38.997 21.2628 39 21.015C39.0031 20.7672 38.9139 20.5271 38.7499 20.3413ZM35.7962 20H30.4999L25.9999 14H30.5462L35.7962 20ZM17.3224 22L21.0887 31.4163L12.3012 22H17.3224ZM30.6774 22H35.6987L26.9112 31.4163L30.6774 22ZM17.4537 14H21.9999L17.4999 20H12.2037L17.4537 14Z" fill="white"/>
</svg>
