<svg width="52" height="53" viewBox="0 0 52 53" fill="none" xmlns="http://www.w3.org/2000/svg">
<path d="M0 26.5C0 12.1406 11.6406 0.5 26 0.5C40.3594 0.5 52 12.1406 52 26.5C52 40.8594 40.3594 52.5 26 52.5C11.6406 52.5 0 40.8594 0 26.5Z" fill="#F59E0B"/>
<path d="M33.5 23.5006C33.5 23.2781 33.566 23.0606 33.6896 22.8756C33.8132 22.6906 33.9889 22.5464 34.1945 22.4612C34.4001 22.3761 34.6263 22.3538 34.8445 22.3972C35.0627 22.4406 35.2632 22.5478 35.4205 22.7051C35.5778 22.8624 35.685 23.0629 35.7284 23.2811C35.7718 23.4993 35.7495 23.7255 35.6644 23.9311C35.5792 24.1367 35.435 24.3124 35.25 24.436C35.065 24.5596 34.8475 24.6256 34.625 24.6256C34.3266 24.6256 34.0405 24.5071 33.8295 24.2961C33.6185 24.0851 33.5 23.799 33.5 23.5006ZM32.375 21.2506C32.5975 21.2506 32.815 21.1846 33 21.061C33.185 20.9374 33.3292 20.7617 33.4144 20.5561C33.4995 20.3505 33.5218 20.1243 33.4784 19.9061C33.435 19.6879 33.3278 19.4874 33.1705 19.3301C33.0132 19.1728 32.8127 19.0656 32.5945 19.0222C32.3763 18.9788 32.1501 19.0011 31.9445 19.0862C31.7389 19.1714 31.5632 19.3156 31.4396 19.5006C31.316 19.6856 31.25 19.9031 31.25 20.1256C31.25 20.424 31.3685 20.7101 31.5795 20.9211C31.7905 21.1321 32.0766 21.2506 32.375 21.2506ZM35.0619 26.5006C34.8637 26.4843 34.6672 26.5473 34.5155 26.6758C34.3638 26.8043 34.2693 26.9878 34.2528 27.1859C34.1186 28.7538 33.5394 30.2508 32.5832 31.5007C31.6271 32.7506 30.3339 33.7014 28.8557 34.2412C27.3775 34.7811 25.7759 34.8875 24.2393 34.548C22.7027 34.2085 21.295 33.4371 20.1819 32.3247C19.0688 31.2123 18.2966 29.8051 17.9561 28.2688C17.6156 26.7324 17.721 25.1307 18.26 23.6522C18.7989 22.1737 19.7489 20.8798 20.9981 19.9229C22.2474 18.966 23.744 18.3858 25.3119 18.2506C25.4104 18.2425 25.5063 18.215 25.5942 18.1698C25.6821 18.1246 25.7602 18.0626 25.8241 17.9872C25.888 17.9118 25.9364 17.8245 25.9666 17.7304C25.9968 17.6363 26.0081 17.5372 26 17.4387C25.9919 17.3402 25.9644 17.2443 25.9192 17.1564C25.8741 17.0685 25.812 16.9904 25.7366 16.9265C25.6612 16.8626 25.574 16.8142 25.4799 16.784C25.3858 16.7538 25.2866 16.7425 25.1881 16.7506C23.3357 16.9099 21.5672 17.595 20.0909 18.7253C18.6146 19.8556 17.4917 21.384 16.8545 23.1307C16.2173 24.8774 16.0923 26.7698 16.494 28.5852C16.8958 30.4006 17.8077 32.0634 19.1224 33.3782C20.4372 34.6929 22.1001 35.6048 23.9154 36.0066C25.7308 36.4083 27.6232 36.2833 29.3699 35.6461C31.1166 35.0089 32.645 33.886 33.7753 32.4097C34.9056 30.9334 35.5907 29.1649 35.75 27.3125C35.7585 27.2139 35.7474 27.1147 35.7173 27.0204C35.6873 26.9262 35.6389 26.8388 35.5749 26.7633C35.511 26.6879 35.4327 26.6258 35.3446 26.5807C35.2566 26.5356 35.1605 26.5084 35.0619 26.5006ZM26 19.7506C27.335 19.7506 28.6401 20.1465 29.7501 20.8882C30.8601 21.6299 31.7253 22.6841 32.2362 23.9175C32.7471 25.1509 32.8808 26.5081 32.6203 27.8175C32.3599 29.1268 31.717 30.3296 30.773 31.2736C29.829 32.2176 28.6263 32.8604 27.3169 33.1209C26.0075 33.3813 24.6503 33.2477 23.4169 32.7368C22.1835 32.2259 21.1293 31.3607 20.3876 30.2507C19.6459 29.1407 19.25 27.8356 19.25 26.5006C19.252 24.711 19.9638 22.9953 21.2292 21.7298C22.4947 20.4644 24.2104 19.7526 26 19.7506ZM25.25 26.5006C25.25 26.6995 25.329 26.8903 25.4697 27.0309C25.6103 27.1716 25.8011 27.2506 26 27.2506H30.5C30.6989 27.2506 30.8897 27.1716 31.0303 27.0309C31.171 26.8903 31.25 26.6995 31.25 26.5006C31.25 26.3017 31.171 26.1109 31.0303 25.9703C30.8897 25.8296 30.6989 25.7506 30.5 25.7506H26.75V22.0006C26.75 21.8017 26.671 21.6109 26.5303 21.4703C26.3897 21.3296 26.1989 21.2506 26 21.2506C25.8011 21.2506 25.6103 21.3296 25.4697 21.4703C25.329 21.6109 25.25 21.8017 25.25 22.0006V26.5006ZM29 19.0006C29.2225 19.0006 29.44 18.9346 29.625 18.811C29.81 18.6874 29.9542 18.5117 30.0394 18.3061C30.1245 18.1005 30.1468 17.8743 30.1034 17.6561C30.06 17.4379 29.9528 17.2374 29.7955 17.0801C29.6382 16.9228 29.4377 16.8156 29.2195 16.7722C29.0013 16.7288 28.7751 16.7511 28.5695 16.8362C28.3639 16.9214 28.1882 17.0656 28.0646 17.2506C27.941 17.4356 27.875 17.6531 27.875 17.8756C27.875 18.174 27.9935 18.4601 28.2045 18.6711C28.4155 18.8821 28.7016 19.0006 29 19.0006Z" fill="white"/>
</svg>
