<svg width="25" height="28" viewBox="0 0 25 28" fill="none" xmlns="http://www.w3.org/2000/svg">
<path d="M8.29568 8.98556L1.38674 4.99868C0.767659 4.652 0 5.09774 0 5.79111V22.1844C0 22.9025 0.767659 23.3235 1.38674 22.9768L8.29568 18.9899C8.41949 18.9156 8.46902 18.7918 8.46902 18.668V9.30748C8.49378 9.18367 8.41949 9.05985 8.29568 8.98556Z" fill="#4F16A5"/>
<path d="M24.0697 9.90181C24.6888 9.55513 24.6888 8.66365 24.0697 8.31697L9.88039 0.120342C9.26131 -0.226343 8.49365 0.219394 8.49365 0.912764V8.88652C8.49365 9.01034 8.56794 9.13415 8.66699 9.20844L16.7646 13.8887C16.8884 13.963 17.0122 13.963 17.136 13.8887L24.0697 9.90181Z" fill="#F9C346"/>
<path d="M9.85563 27.8799L24.0449 19.6833C24.664 19.3366 24.664 18.4451 24.0449 18.0984L17.136 14.1116C17.0122 14.0373 16.8884 14.0373 16.7646 14.1116L8.66699 18.7918C8.54318 18.8661 8.49365 18.9899 8.49365 19.1137V27.0875C8.49365 27.7809 9.26131 28.2266 9.85563 27.8799Z" fill="#E84E4E"/>
</svg>
