<svg width="40" height="40" viewBox="0 0 40 40" fill="none" xmlns="http://www.w3.org/2000/svg">
<path d="M0 20C0 8.95431 8.95431 0 20 0C31.0457 0 40 8.95431 40 20C40 31.0457 31.0457 40 20 40C8.95431 40 0 31.0457 0 20Z" fill="#CBD5E1"/>
<path d="M13.125 17.1873H15.4734C15.6673 17.7355 16.0264 18.2102 16.5013 18.546C16.9762 18.8817 17.5434 19.062 18.125 19.062C18.7066 19.062 19.2738 18.8817 19.7487 18.546C20.2236 18.2102 20.5827 17.7355 20.7766 17.1873H26.875C27.1236 17.1873 27.3621 17.0885 27.5379 16.9127C27.7137 16.7368 27.8125 16.4984 27.8125 16.2498C27.8125 16.0011 27.7137 15.7627 27.5379 15.5868C27.3621 15.411 27.1236 15.3123 26.875 15.3123H20.7766C20.5827 14.764 20.2236 14.2893 19.7487 13.9535C19.2738 13.6178 18.7066 13.4375 18.125 13.4375C17.5434 13.4375 16.9762 13.6178 16.5013 13.9535C16.0264 14.2893 15.6673 14.764 15.4734 15.3123H13.125C12.8764 15.3123 12.6379 15.411 12.4621 15.5868C12.2863 15.7627 12.1875 16.0011 12.1875 16.2498C12.1875 16.4984 12.2863 16.7368 12.4621 16.9127C12.6379 17.0885 12.8764 17.1873 13.125 17.1873ZM18.125 15.3123C18.3104 15.3123 18.4917 15.3672 18.6458 15.4702C18.8 15.5733 18.9202 15.7197 18.9911 15.891C19.0621 16.0623 19.0807 16.2508 19.0445 16.4326C19.0083 16.6145 18.919 16.7816 18.7879 16.9127C18.6568 17.0438 18.4898 17.1331 18.3079 17.1692C18.126 17.2054 17.9375 17.1868 17.7662 17.1159C17.5949 17.0449 17.4485 16.9248 17.3455 16.7706C17.2425 16.6164 17.1875 16.4352 17.1875 16.2498C17.1875 16.0011 17.2863 15.7627 17.4621 15.5868C17.6379 15.411 17.8764 15.3123 18.125 15.3123ZM26.875 22.8123H25.7766C25.5827 22.264 25.2236 21.7893 24.7487 21.4535C24.2738 21.1178 23.7066 20.9375 23.125 20.9375C22.5434 20.9375 21.9762 21.1178 21.5013 21.4535C21.0264 21.7893 20.6673 22.264 20.4734 22.8123H13.125C12.8764 22.8123 12.6379 22.911 12.4621 23.0868C12.2863 23.2627 12.1875 23.5011 12.1875 23.7498C12.1875 23.9984 12.2863 24.2368 12.4621 24.4127C12.6379 24.5885 12.8764 24.6873 13.125 24.6873H20.4734C20.6673 25.2355 21.0264 25.7102 21.5013 26.046C21.9762 26.3817 22.5434 26.562 23.125 26.562C23.7066 26.562 24.2738 26.3817 24.7487 26.046C25.2236 25.7102 25.5827 25.2355 25.7766 24.6873H26.875C27.1236 24.6873 27.3621 24.5885 27.5379 24.4127C27.7137 24.2368 27.8125 23.9984 27.8125 23.7498C27.8125 23.5011 27.7137 23.2627 27.5379 23.0868C27.3621 22.911 27.1236 22.8123 26.875 22.8123ZM23.125 24.6873C22.9396 24.6873 22.7583 24.6323 22.6042 24.5293C22.45 24.4262 22.3298 24.2798 22.2589 24.1085C22.1879 23.9372 22.1693 23.7487 22.2055 23.5669C22.2417 23.385 22.331 23.218 22.4621 23.0868C22.5932 22.9557 22.7602 22.8664 22.9421 22.8303C23.124 22.7941 23.3125 22.8127 23.4838 22.8836C23.6551 22.9546 23.8015 23.0747 23.9045 23.2289C24.0075 23.3831 24.0625 23.5643 24.0625 23.7498C24.0625 23.9984 23.9637 24.2368 23.7879 24.4127C23.6121 24.5885 23.3736 24.6873 23.125 24.6873Z" fill="#1E293B"/>
</svg>
