<svg width="73" height="72" viewBox="0 0 73 72" fill="none" xmlns="http://www.w3.org/2000/svg">
<path d="M58 31H35C33.6 31 32.5 29.9 32.5 28.5V18.5C32.5 17.1 33.6 16 35 16H58C59.4 16 60.5 17.1 60.5 18.5V28.5C60.5 29.9 59.4 31 58 31Z" fill="#4338CA"/>
<path d="M60.3 61H12.7C9.3 61 6.5 58 6.5 54.4V17.6C6.5 14 9.3 11 12.7 11H31.2C32.9 11 34.5 12 35.3 13.6L38.5 24H60.3C63.7 24 66.5 26.4 66.5 30V54.4C66.5 58 63.7 61 60.3 61Z" fill="#6366F1"/>
<path d="M8.19995 59C10.4 61.4 12.9 61 14.5 61H59.5C60.5999 61 62.7 61.1 64.8 59H8.19995Z" fill="#4338CA"/>
</svg>
