<svg width="56" height="56" viewBox="0 0 56 56" fill="none" xmlns="http://www.w3.org/2000/svg">
<path d="M0 28C0 12.536 12.536 0 28 0C43.464 0 56 12.536 56 28C56 43.464 43.464 56 28 56C12.536 56 0 43.464 0 28Z" fill="#F9C346"/>
<path d="M33 18.43H23C20 18.43 18 20.43 18 23.43V29.43C18 32.43 20 34.43 23 34.43V36.56C23 37.36 23.89 37.84 24.55 37.39L29 34.43H33C36 34.43 38 32.43 38 29.43V23.43C38 20.43 36 18.43 33 18.43ZM28 30.6C27.58 30.6 27.25 30.26 27.25 29.85C27.25 29.44 27.58 29.1 28 29.1C28.42 29.1 28.75 29.44 28.75 29.85C28.75 30.26 28.42 30.6 28 30.6ZM29.26 26.45C28.87 26.71 28.75 26.88 28.75 27.16V27.37C28.75 27.78 28.41 28.12 28 28.12C27.59 28.12 27.25 27.78 27.25 27.37V27.16C27.25 26 28.1 25.43 28.42 25.21C28.79 24.96 28.91 24.79 28.91 24.53C28.91 24.03 28.5 23.62 28 23.62C27.5 23.62 27.09 24.03 27.09 24.53C27.09 24.94 26.75 25.28 26.34 25.28C25.93 25.28 25.59 24.94 25.59 24.53C25.59 23.2 26.67 22.12 28 22.12C29.33 22.12 30.41 23.2 30.41 24.53C30.41 25.67 29.57 26.24 29.26 26.45Z" fill="white"/>
</svg>
