<svg width="73" height="72" viewBox="0 0 73 72" fill="none" xmlns="http://www.w3.org/2000/svg">
<path d="M50.5 61H22.5C20.9087 61 19.3826 60.3679 18.2574 59.2426C17.1321 58.1174 16.5 56.5913 16.5 55V22L25.5 11H50.5C52.0913 11 53.6174 11.6321 54.7426 12.7574C55.8679 13.8826 56.5 15.4087 56.5 17V55C56.5 56.5913 55.8679 58.1174 54.7426 59.2426C53.6174 60.3679 52.0913 61 50.5 61Z" fill="#EF4444"/>
<path d="M25.5 20.556C25.5 20.939 25.3479 21.3063 25.0771 21.5771C24.8063 21.8479 24.439 22 24.056 22H16.5L25.5 11V20.556Z" fill="#FCA5A5"/>
<path d="M46.5 46.5V33.5C46.4989 32.5721 46.1298 31.6825 45.4736 31.0264C44.8175 30.3702 43.9279 30.0011 43 30H30C29.0721 30.0011 28.1825 30.3702 27.5264 31.0264C26.8702 31.6825 26.5011 32.5721 26.5 33.5V46.5C26.5011 47.4279 26.8702 48.3175 27.5264 48.9736C28.1825 49.6298 29.0721 49.9989 30 50H43C43.9279 49.9989 44.8175 49.6298 45.4736 48.9736C46.1298 48.3175 46.4989 47.4279 46.5 46.5ZM40.5 45V48H37.5V45H40.5ZM37.5 43V37H44.5V43H37.5ZM37.5 35V32H40.5V35H37.5ZM35.5 32V35H32.5V32H35.5ZM35.5 37V43H28.5V37H35.5ZM35.5 45V48H32.5V45H35.5ZM43 48H42.5V45H44.5V46.5C44.4996 46.8977 44.3414 47.279 44.0602 47.5602C43.779 47.8414 43.3977 47.9996 43 48ZM44.5 33.5V35H42.5V32H43C43.3977 32.0004 43.779 32.1586 44.0602 32.4398C44.3414 32.721 44.4996 33.1023 44.5 33.5ZM30 32H30.5V35H28.5V33.5C28.5004 33.1023 28.6586 32.721 28.9398 32.4398C29.221 32.1586 29.6023 32.0004 30 32ZM28.5 46.5V45H30.5V48H30C29.6023 47.9996 29.221 47.8414 28.9398 47.5602C28.6586 47.279 28.5004 46.8977 28.5 46.5Z" fill="white"/>
</svg>
