<svg width="120" height="120" viewBox="0 0 120 120" fill="none" xmlns="http://www.w3.org/2000/svg">
<g id="Frame 2052">
<g id="Group">
<path id="Vector" d="M42.5529 38.5101L12.9432 21.4234C10.29 19.9376 7 21.8479 7 24.8195V95.0763C7 98.154 10.29 99.9582 12.9432 98.4724L42.5529 81.3858C43.0835 81.0674 43.2958 80.5368 43.2958 80.0061V39.8897C43.4019 39.3591 43.0835 38.8284 42.5529 38.5101Z" fill="#4F16A5"/>
<path id="Vector_2" d="M110.156 42.4358C112.81 40.95 112.81 37.1294 110.156 35.6436L49.345 0.515228C46.6918 -0.970565 43.4019 0.939737 43.4019 3.91132V38.0846C43.4019 38.6152 43.7202 39.1458 44.1447 39.4642L78.8486 59.5224C79.3793 59.8408 79.9099 59.8408 80.4405 59.5224L110.156 42.4358Z" fill="#F9C346"/>
<path id="Vector_3" d="M49.2389 119.484L110.05 84.3559C112.703 82.8701 112.703 79.0495 110.05 77.5637L80.4405 60.4771C79.9099 60.1587 79.3793 60.1587 78.8486 60.4771L44.1447 80.5353C43.6141 80.8536 43.4019 81.3843 43.4019 81.9149V116.088C43.4019 119.06 46.6918 120.97 49.2389 119.484Z" fill="#E84E4E"/>
</g>
</g>
</svg>
