<svg width="102" height="94" viewBox="0 0 102 94" fill="none" xmlns="http://www.w3.org/2000/svg">
<g filter="url(#filter0_i_946_3257)">
<path fill-rule="evenodd" clip-rule="evenodd" d="M94.1203 67.3999C98.8559 60.516 101.569 52.3525 101.499 43.6159C101.305 19.3164 79.6577 -0.209816 53.1485 0.00170235C26.6393 0.213676 5.30724 20.0845 5.50131 44.3841C5.69539 68.6831 27.3427 88.2098 53.8515 87.9983C63.3228 87.9226 72.1326 85.3361 79.5365 80.9352L99.342 85.5987L94.1203 67.3999Z" fill="#F1F5F9"/>
</g>
<path fill-rule="evenodd" clip-rule="evenodd" d="M39.4998 42.9604C39.5218 45.7214 37.3012 47.9778 34.5401 47.9998C31.7781 48.0223 29.5217 45.8012 29.5002 43.0401C29.4782 40.2786 31.6984 38.0226 34.4599 38.0002C37.221 37.9782 39.4774 40.1988 39.4998 42.9604Z" fill="#1E293B"/>
<path fill-rule="evenodd" clip-rule="evenodd" d="M57.4998 42.9599C57.5218 45.7214 55.3012 47.9778 52.5396 47.9998C49.7781 48.0218 47.5217 45.8012 47.5002 43.0401C47.4777 40.2786 49.6984 38.0222 52.4599 38.0002C55.221 37.9782 57.4774 40.1988 57.4998 42.9599Z" fill="#1E293B"/>
<path fill-rule="evenodd" clip-rule="evenodd" d="M75.4998 42.9599C75.5218 45.721 73.3012 47.9774 70.5396 47.9998C67.7781 48.0218 65.5217 45.8012 65.5002 43.0396C65.4777 40.2781 67.6984 38.0222 70.4599 38.0002C73.221 37.9777 75.4774 40.1988 75.4998 42.9599Z" fill="#1E293B"/>
<path fill-rule="evenodd" clip-rule="evenodd" d="M0.5 78.0005C0.5 81.1758 1.51559 84.1321 3.26097 86.6207L1.40859 93.2598L8.62103 91.5051C11.3326 93.0823 14.5481 94 18 94C27.6652 94 35.5 86.8365 35.5 78.0005C35.5 69.1635 27.6652 62 18 62C8.33478 62 0.5 69.1635 0.5 78.0005Z" fill="url(#paint0_linear_946_3257)"/>
<defs>
<filter id="filter0_i_946_3257" x="5.5" y="0" width="96" height="90" filterUnits="userSpaceOnUse" color-interpolation-filters="sRGB">
<feFlood flood-opacity="0" result="BackgroundImageFix"/>
<feBlend mode="normal" in="SourceGraphic" in2="BackgroundImageFix" result="shape"/>
<feColorMatrix in="SourceAlpha" type="matrix" values="0 0 0 0 0 0 0 0 0 0 0 0 0 0 0 0 0 0 127 0" result="hardAlpha"/>
<feOffset dy="2"/>
<feGaussianBlur stdDeviation="12"/>
<feComposite in2="hardAlpha" operator="arithmetic" k2="-1" k3="1"/>
<feColorMatrix type="matrix" values="0 0 0 0 0.641667 0 0 0 0 0.641667 0 0 0 0 0.641667 0 0 0 0.26 0"/>
<feBlend mode="normal" in2="shape" result="effect1_innerShadow_946_3257"/>
</filter>
<linearGradient id="paint0_linear_946_3257" x1="1.45621" y1="59.2955" x2="41.8302" y2="85.5426" gradientUnits="userSpaceOnUse">
<stop stop-color="#C67CFF"/>
<stop offset="1" stop-color="#3A65FF"/>
</linearGradient>
</defs>
</svg>
