<svg width="16" height="16" viewBox="0 0 16 16" fill="none" xmlns="http://www.w3.org/2000/svg">
<g id="link-square-01">
<path id="Vector" d="M7.40001 2.00134C4.96742 2.00572 3.69358 2.06544 2.8795 2.8795C2.00098 3.758 2.00098 5.17193 2.00098 7.99976C2.00098 10.8276 2.00098 12.2416 2.8795 13.12C3.75803 13.9986 5.172 13.9986 7.99994 13.9986C10.8279 13.9986 12.2418 13.9986 13.1204 13.12C13.9344 12.306 13.9941 11.0322 13.9985 8.59969" stroke="#4F46E5" stroke-width="1.5" stroke-linecap="round" stroke-linejoin="round"/>
<path id="Vector_2" d="M13.6536 2.34481L9.9541 6.03413M13.6536 2.34481C13.3243 2.01513 11.1059 2.04586 10.6369 2.05253M13.6536 2.34481C13.9829 2.67448 13.9522 4.89532 13.9456 5.36483" stroke="#4F46E5" stroke-width="1.5" stroke-linecap="round" stroke-linejoin="round"/>
</g>
</svg>
