<svg width="30" height="35" viewBox="0 0 30 35" fill="none" xmlns="http://www.w3.org/2000/svg">
<g id="Frame">
<g id="Vector">
<path d="M0 1.875C0 0.839465 0.839466 0 1.875 0H18.75L30 11.25V33.125C30 34.1605 29.1605 35 28.125 35H1.875C0.839466 35 0 34.1605 0 33.125V1.875Z" fill="#6E51E0"/>
<path d="M0 1.875C0 0.839465 0.839466 0 1.875 0H18.75L30 11.25V33.125C30 34.1605 29.1605 35 28.125 35H1.875C0.839466 35 0 34.1605 0 33.125V1.875Z" fill="url(#paint0_linear_429_12425)" fill-opacity="0.16"/>
<path d="M18.75 9.375V0L30 11.25H20.625C19.5895 11.25 18.75 10.4105 18.75 9.375Z" fill="#4C1D95"/>
</g>
<g id="Vector_2">
<path d="M5.90576 25V18.875H8.55701C9.10535 18.875 9.57785 18.9654 9.97451 19.1463C10.3712 19.3213 10.6774 19.575 10.8933 19.9075C11.1091 20.24 11.217 20.6367 11.217 21.0975C11.217 21.5525 11.1091 21.9463 10.8933 22.2788C10.6774 22.6113 10.3712 22.8679 9.97451 23.0488C9.57785 23.2238 9.10535 23.3113 8.55701 23.3113H6.69326L7.32326 22.6725V25H5.90576ZM7.32326 22.83L6.69326 22.1563H8.47826C8.91576 22.1563 9.24243 22.0629 9.45826 21.8763C9.6741 21.6896 9.78201 21.43 9.78201 21.0975C9.78201 20.7592 9.6741 20.4967 9.45826 20.31C9.24243 20.1233 8.91576 20.03 8.47826 20.03H6.69326L7.32326 19.3563V22.83Z" fill="white"/>
<path d="M12.479 25V18.875H15.2615C15.9265 18.875 16.5128 19.0033 17.0203 19.26C17.5278 19.5108 17.9244 19.8638 18.2103 20.3188C18.4961 20.7738 18.639 21.3133 18.639 21.9375C18.639 22.5558 18.4961 23.0954 18.2103 23.5563C17.9244 24.0113 17.5278 24.3671 17.0203 24.6238C16.5128 24.8746 15.9265 25 15.2615 25H12.479ZM13.8965 23.8363H15.1915C15.5998 23.8363 15.9528 23.7604 16.2503 23.6088C16.5536 23.4513 16.7869 23.2296 16.9503 22.9438C17.1194 22.6579 17.204 22.3225 17.204 21.9375C17.204 21.5467 17.1194 21.2113 16.9503 20.9313C16.7869 20.6454 16.5536 20.4267 16.2503 20.275C15.9528 20.1175 15.5998 20.0388 15.1915 20.0388H13.8965V23.8363Z" fill="white"/>
<path d="M21.2705 21.6313H24.2105V22.7688H21.2705V21.6313ZM21.3755 25H19.958V18.875H24.5868V20.0125H21.3755V25Z" fill="white"/>
</g>
</g>
<defs>
<linearGradient id="paint0_linear_429_12425" x1="30" y1="17.5" x2="9.65946e-07" y2="17.5" gradientUnits="userSpaceOnUse">
<stop stop-color="white"/>
<stop offset="1" stop-opacity="0"/>
<stop offset="1" stop-color="white" stop-opacity="0"/>
</linearGradient>
</defs>
</svg>
