<svg width="40" height="40" viewBox="0 0 40 40" fill="none" xmlns="http://www.w3.org/2000/svg">
<path d="M0 20.01C0 8.96432 8.95431 0.0100098 20 0.0100098C31.0457 0.0100098 40 8.96432 40 20.01C40 31.0557 31.0457 40.01 20 40.01C8.95431 40.01 0 31.0557 0 20.01Z" fill="#0F172A"/>
<path fill-rule="evenodd" clip-rule="evenodd" d="M19.9998 9.01001C19.2796 9.01001 18.8376 9.53641 18.5503 9.98989C18.2554 10.4552 17.9512 11.1255 17.5901 11.921C17.4499 12.2299 17.3138 12.5423 17.1776 12.8552C16.8605 13.5833 16.5422 14.3141 16.1676 15.0096C15.8817 15.5403 15.3768 15.843 14.7614 15.6246C14.5293 15.5422 14.2372 15.413 13.7962 15.2169C13.69 15.1698 13.5793 15.1171 13.4649 15.0628C12.8585 14.7746 12.1522 14.4389 11.5126 14.6219C10.8839 14.8018 10.4364 15.3243 10.2894 15.9353C10.2002 16.3067 10.278 16.6877 10.3692 17.0155C10.4635 17.3545 10.617 17.7793 10.8021 18.2916L12.4945 22.9752C12.8395 23.9301 13.118 24.701 13.4066 25.2993C13.9966 26.5228 14.9269 27.2698 16.2897 27.4348C16.9107 27.51 17.6724 27.51 18.5984 27.51H21.4012C22.3272 27.51 23.089 27.51 23.7099 27.4348C25.0728 27.2698 26.0031 26.5228 26.5931 25.2993C26.8816 24.701 27.1601 23.9302 27.5052 22.9751L29.1975 18.2916C29.3826 17.7794 29.5361 17.3545 29.6304 17.0155C29.7216 16.6877 29.7995 16.3067 29.7102 15.9353C29.5633 15.3243 29.1158 14.8018 28.487 14.6219C27.8539 14.4408 27.15 14.7734 26.5495 15.0571C26.4411 15.1084 26.3361 15.158 26.2355 15.2027C26.174 15.23 26.1126 15.2576 26.0512 15.2852C25.7834 15.4057 25.5147 15.5264 25.2383 15.6246C24.6228 15.843 24.1179 15.5403 23.8321 15.0096C23.4574 14.3141 23.1392 13.5833 22.8221 12.8552C22.6858 12.5423 22.5497 12.2299 22.4095 11.921C22.0485 11.1255 21.7442 10.4552 21.4494 9.98989C21.162 9.53641 20.72 9.01001 19.9998 9.01001ZM19.999 21.01C19.1743 21.01 18.5057 21.6816 18.5057 22.51C18.5057 23.3384 19.1743 24.01 19.999 24.01H20.0124C20.8372 24.01 21.5057 23.3384 21.5057 22.51C21.5057 21.6816 20.8372 21.01 20.0124 21.01H19.999Z" fill="#F59E0B"/>
<path fill-rule="evenodd" clip-rule="evenodd" d="M14 30.01C14 29.4577 14.4477 29.01 15 29.01H25C25.5523 29.01 26 29.4577 26 30.01C26 30.5623 25.5523 31.01 25 31.01H15C14.4477 31.01 14 30.5623 14 30.01Z" fill="#F59E0B"/>
</svg>
