<svg width="96" height="96" viewBox="0 0 96 96" fill="none" xmlns="http://www.w3.org/2000/svg">
<path d="M0 48C0 21.4903 21.4903 0 48 0C74.5097 0 96 21.4903 96 48C96 74.5097 74.5097 96 48 96C21.4903 96 0 74.5097 0 48Z" fill="#EEF2FF"/>
<path d="M67.5918 39.0919L43.5918 63.092C43.3828 63.3017 43.1344 63.4681 42.8609 63.5817C42.5874 63.6953 42.2942 63.7537 41.998 63.7537C41.7019 63.7537 41.4087 63.6953 41.1352 63.5817C40.8617 63.4681 40.6133 63.3017 40.4043 63.092L29.9043 52.592C29.695 52.3827 29.529 52.1342 29.4157 51.8607C29.3024 51.5873 29.2441 51.2942 29.2441 50.9982C29.2441 50.7022 29.3024 50.4091 29.4157 50.1357C29.529 49.8622 29.695 49.6137 29.9043 49.4045C30.1136 49.1952 30.3621 49.0291 30.6355 48.9159C30.909 48.8026 31.2021 48.7443 31.498 48.7443C31.794 48.7443 32.0871 48.8026 32.3606 48.9159C32.634 49.0291 32.8825 49.1952 33.0918 49.4045L41.9999 58.3126L64.408 35.9082C64.8307 35.4855 65.404 35.248 66.0018 35.248C66.5996 35.248 67.1729 35.4855 67.5955 35.9082C68.0182 36.3309 68.2557 36.9042 68.2557 37.502C68.2557 38.0997 68.0182 38.673 67.5955 39.0957L67.5918 39.0919Z" fill="#4F46E5"/>
</svg>
