<svg width="16" height="16" viewBox="0 0 16 16" fill="none" xmlns="http://www.w3.org/2000/svg">
<g id="Frame">
<path id="Vector" d="M14.5305 13.4694L11.5624 10.5C12.4524 9.3403 12.8678 7.8855 12.7246 6.43072C12.5814 4.97594 11.8901 3.63011 10.7911 2.66625C9.69203 1.70239 8.26751 1.19266 6.80648 1.24048C5.34544 1.2883 3.9573 1.89007 2.92364 2.92373C1.88998 3.95739 1.2882 5.34554 1.24039 6.80657C1.19257 8.2676 1.7023 9.69212 2.66616 10.7912C3.63002 11.8902 4.97585 12.5814 6.43063 12.7247C7.88541 12.8679 9.34021 12.4524 10.4999 11.5625L13.4705 14.5338C13.5403 14.6035 13.6231 14.6589 13.7143 14.6966C13.8054 14.7344 13.9031 14.7538 14.0018 14.7538C14.1005 14.7538 14.1981 14.7344 14.2893 14.6966C14.3805 14.6589 14.4633 14.6035 14.533 14.5338C14.6028 14.464 14.6581 14.3812 14.6959 14.29C14.7337 14.1989 14.7531 14.1012 14.7531 14.0025C14.7531 13.9038 14.7337 13.8061 14.6959 13.715C14.6581 13.6238 14.6028 13.541 14.533 13.4713L14.5305 13.4694ZM2.74991 7.00001C2.74991 6.15944 2.99917 5.33774 3.46617 4.63883C3.93316 3.93992 4.59692 3.39519 5.37351 3.07352C6.1501 2.75185 7.00463 2.66768 7.82905 2.83167C8.65347 2.99566 9.41075 3.40043 10.0051 3.9948C10.5995 4.58918 11.0043 5.34645 11.1683 6.17087C11.3322 6.99529 11.2481 7.84982 10.9264 8.62641C10.6047 9.403 10.06 10.0668 9.36109 10.5338C8.66218 11.0007 7.84049 11.25 6.99991 11.25C5.8731 11.2488 4.79277 10.8007 3.99599 10.0039C3.19921 9.20715 2.75107 8.12682 2.74991 7.00001Z" fill="#0F172A"/>
</g>
</svg>
