<svg width="33" height="32" viewBox="0 0 33 32" fill="none" xmlns="http://www.w3.org/2000/svg">
<path d="M15.7608 0.811332C16.1574 0.375977 16.8426 0.375977 17.2392 0.811332L19.3811 3.16226C19.6442 3.45106 20.0515 3.56017 20.4237 3.44163L23.4542 2.47663C24.0154 2.29792 24.6087 2.64048 24.7345 3.21583L25.414 6.32275C25.4975 6.70442 25.7956 7.00253 26.1773 7.086L29.2842 7.7655C29.8595 7.89133 30.2021 8.48465 30.0234 9.04583L29.0584 12.0763C28.9398 12.4485 29.0489 12.8558 29.3377 13.1189L31.6887 15.2608C32.124 15.6574 32.124 16.3426 31.6887 16.7392L29.3377 18.8811C29.0489 19.1442 28.9398 19.5515 29.0584 19.9237L30.0234 22.9542C30.2021 23.5154 29.8595 24.1087 29.2842 24.2345L26.1773 24.914C25.7956 24.9975 25.4975 25.2956 25.414 25.6773L24.7345 28.7842C24.6087 29.3595 24.0154 29.7021 23.4542 29.5234L20.4237 28.5584C20.0515 28.4398 19.6442 28.5489 19.3811 28.8377L17.2392 31.1887C16.8426 31.624 16.1574 31.624 15.7608 31.1887L13.6189 28.8377C13.3558 28.5489 12.9485 28.4398 12.5763 28.5584L9.54583 29.5234C8.98465 29.7021 8.39133 29.3595 8.2655 28.7842L7.586 25.6773C7.50253 25.2956 7.20442 24.9975 6.82275 24.914L3.71583 24.2345C3.14048 24.1087 2.79792 23.5154 2.97663 22.9542L3.94163 19.9237C4.06017 19.5515 3.95106 19.1442 3.66226 18.8811L1.31133 16.7392C0.875977 16.3426 0.875977 15.6574 1.31133 15.2608L3.66226 13.1189C3.95106 12.8558 4.06017 12.4485 3.94163 12.0763L2.97663 9.04583C2.79792 8.48465 3.14048 7.89133 3.71583 7.7655L6.82275 7.086C7.20442 7.00253 7.50253 6.70442 7.586 6.32275L8.2655 3.21583C8.39133 2.64048 8.98465 2.29792 9.54583 2.47663L12.5763 3.44163C12.9485 3.56017 13.3558 3.45106 13.6189 3.16226L15.7608 0.811332Z" fill="#0F172A"/>
<path d="M21.5 13H19.5V11.5C19.5 10.7044 19.1839 9.94129 18.6213 9.37868C18.0587 8.81607 17.2956 8.5 16.5 8.5C15.7044 8.5 14.9413 8.81607 14.3787 9.37868C13.8161 9.94129 13.5 10.7044 13.5 11.5V13H11.5C11.2348 13 10.9804 13.1054 10.7929 13.2929C10.6054 13.4804 10.5 13.7348 10.5 14V21C10.5 21.2652 10.6054 21.5196 10.7929 21.7071C10.9804 21.8946 11.2348 22 11.5 22H21.5C21.7652 22 22.0196 21.8946 22.2071 21.7071C22.3946 21.5196 22.5 21.2652 22.5 21V14C22.5 13.7348 22.3946 13.4804 22.2071 13.2929C22.0196 13.1054 21.7652 13 21.5 13ZM17 17.9144V19.5C17 19.6326 16.9473 19.7598 16.8536 19.8536C16.7598 19.9473 16.6326 20 16.5 20C16.3674 20 16.2402 19.9473 16.1464 19.8536C16.0527 19.7598 16 19.6326 16 19.5V17.9144C15.6664 17.7964 15.3852 17.5643 15.2062 17.2591C15.0271 16.9539 14.9618 16.5953 15.0216 16.2465C15.0814 15.8978 15.2626 15.5814 15.5332 15.3533C15.8037 15.1253 16.1462 15.0002 16.5 15.0002C16.8538 15.0002 17.1963 15.1253 17.4668 15.3533C17.7374 15.5814 17.9186 15.8978 17.9784 16.2465C18.0382 16.5953 17.9729 16.9539 17.7938 17.2591C17.6148 17.5643 17.3336 17.7964 17 17.9144ZM18.5 13H14.5V11.5C14.5 10.9696 14.7107 10.4609 15.0858 10.0858C15.4609 9.71071 15.9696 9.5 16.5 9.5C17.0304 9.5 17.5391 9.71071 17.9142 10.0858C18.2893 10.4609 18.5 10.9696 18.5 11.5V13Z" fill="white"/>
</svg>
