<svg width="24" height="24" viewBox="0 0 24 24" fill="none" xmlns="http://www.w3.org/2000/svg">
<path d="M14.0953 14.0456C13.9333 13.9445 13.7482 13.8862 13.5574 13.8764C13.3667 13.8665 13.1766 13.9054 13.005 13.9894L11.0625 14.9409C10.9101 14.6224 10.6709 14.3533 10.3724 14.1648C10.0738 13.9762 9.72811 13.8757 9.375 13.875H4.5C4.00272 13.875 3.52581 14.0725 3.17417 14.4242C2.82254 14.7758 2.625 15.2527 2.625 15.75V19.5C2.625 19.9973 2.82254 20.4742 3.17417 20.8258C3.52581 21.1775 4.00272 21.375 4.5 21.375H9.375C9.73935 21.3744 10.0956 21.2678 10.4003 21.068C10.705 20.8682 10.9449 20.5839 11.0906 20.25L12.9769 21.2419C13.148 21.3318 13.3395 21.376 13.5327 21.3704C13.7259 21.3648 13.9145 21.3095 14.0801 21.2098C14.2457 21.1101 14.3829 20.9694 14.4783 20.8013C14.5738 20.6332 14.6243 20.4433 14.625 20.25V15C14.625 14.809 14.5763 14.6212 14.4837 14.4543C14.391 14.2873 14.2573 14.1467 14.0953 14.0456ZM9 19.125H4.875V16.125H9V19.125ZM12.375 18.3872L11.25 17.7966V17.3541L12.375 16.8038V18.3872ZM20.2959 7.45406L15.0459 2.20406C14.9414 2.09962 14.8173 2.01681 14.6807 1.96035C14.5441 1.90389 14.3978 1.87488 14.25 1.875H5.25C4.75272 1.875 4.27581 2.07254 3.92417 2.42418C3.57254 2.77581 3.375 3.25272 3.375 3.75V10.875C3.375 11.1734 3.49353 11.4595 3.7045 11.6705C3.91548 11.8815 4.20163 12 4.5 12C4.79837 12 5.08452 11.8815 5.2955 11.6705C5.50647 11.4595 5.625 11.1734 5.625 10.875V4.125H12.75V8.625C12.75 8.92337 12.8685 9.20952 13.0795 9.4205C13.2905 9.63147 13.5766 9.75 13.875 9.75H18.375V19.875H17.625C17.3266 19.875 17.0405 19.9935 16.8295 20.2045C16.6185 20.4155 16.5 20.7016 16.5 21C16.5 21.2984 16.6185 21.5845 16.8295 21.7955C17.0405 22.0065 17.3266 22.125 17.625 22.125H18.75C19.2473 22.125 19.7242 21.9275 20.0758 21.5758C20.4275 21.2242 20.625 20.7473 20.625 20.25V8.25C20.6251 8.10222 20.5961 7.95586 20.5397 7.81929C20.4832 7.68272 20.4004 7.55862 20.2959 7.45406ZM15 5.34375L17.1562 7.5H15V5.34375Z" fill="#E11D48"/>
</svg>
