<svg width="40" height="40" viewBox="0 0 40 40" fill="none" xmlns="http://www.w3.org/2000/svg">
<path d="M0 20C0 8.95431 8.95431 0 20 0C31.0457 0 40 8.95431 40 20C40 31.0457 31.0457 40 20 40C8.95431 40 0 31.0457 0 20Z" fill="#CBD5E1"/>
<path d="M26.2882 19.4133C26.2011 19.5007 26.0977 19.57 25.9837 19.6173C25.8697 19.6646 25.7476 19.689 25.6242 19.689C25.5008 19.689 25.3786 19.6646 25.2647 19.6173C25.1507 19.57 25.0472 19.5007 24.9601 19.4133L20.9375 15.3906V26.875C20.9375 27.1236 20.8387 27.3621 20.6629 27.5379C20.4871 27.7137 20.2486 27.8125 20 27.8125C19.7513 27.8125 19.5129 27.7137 19.3371 27.5379C19.1612 27.3621 19.0625 27.1236 19.0625 26.875V15.3906L15.0382 19.4133C14.8621 19.5894 14.6233 19.6883 14.3742 19.6883C14.1251 19.6883 13.8862 19.5894 13.7101 19.4133C13.534 19.2371 13.4351 18.9983 13.4351 18.7492C13.4351 18.5001 13.534 18.2612 13.7101 18.0851L19.3351 12.4601C19.4222 12.3727 19.5257 12.3034 19.6397 12.2561C19.7536 12.2087 19.8758 12.1844 19.9992 12.1844C20.1226 12.1844 20.2447 12.2087 20.3587 12.2561C20.4727 12.3034 20.5762 12.3727 20.6632 12.4601L26.2882 18.0851C26.3756 18.1722 26.445 18.2757 26.4923 18.3897C26.5396 18.5036 26.564 18.6258 26.564 18.7492C26.564 18.8726 26.5396 18.9948 26.4923 19.1087C26.445 19.2227 26.3756 19.3262 26.2882 19.4133Z" fill="white"/>
</svg>
