<svg width="48" height="48" viewBox="0 0 48 48" fill="none" xmlns="http://www.w3.org/2000/svg">
<path d="M0 24C0 10.7452 10.7452 0 24 0C37.2548 0 48 10.7452 48 24C48 37.2548 37.2548 48 24 48C10.7452 48 0 37.2548 0 24Z" fill="#3F0F3F"/>
<path fill-rule="evenodd" clip-rule="evenodd" d="M18 27.355C18 25.9713 19.1469 24.8574 20.5714 24.8574C21.996 24.8574 23.1429 25.9713 23.1429 27.355V33.5027C23.1429 34.8863 21.996 36.0003 20.5714 36.0003C19.1469 36.0003 18 34.8863 18 33.5027V27.355Z" fill="#E01E5A"/>
<path fill-rule="evenodd" clip-rule="evenodd" d="M27.3549 30.0003C25.9713 30.0003 24.8574 28.8534 24.8574 27.4289C24.8574 26.0043 25.9713 24.8574 27.3549 24.8574H33.5028C34.8864 24.8574 36.0003 26.0043 36.0003 27.4289C36.0003 28.8534 34.8864 30.0003 33.5028 30.0003H27.3549Z" fill="#ECB22D"/>
<path fill-rule="evenodd" clip-rule="evenodd" d="M24.8574 14.4975C24.8574 13.1139 26.0043 12 27.4289 12C28.8534 12 30.0003 13.1139 30.0003 14.4975V20.6454C30.0003 22.029 28.8534 23.1429 27.4289 23.1429C26.0043 23.1429 24.8574 22.029 24.8574 20.6453V14.4975Z" fill="#2FB67C"/>
<path fill-rule="evenodd" clip-rule="evenodd" d="M14.4975 23.1429C13.1139 23.1429 12 21.996 12 20.5714C12 19.1469 13.1139 18 14.4975 18H20.6454C22.029 18 23.1429 19.1469 23.1429 20.5714C23.1429 21.996 22.029 23.1429 20.6453 23.1429H14.4975Z" fill="#36C5F1"/>
<path fill-rule="evenodd" clip-rule="evenodd" d="M24.8574 33.4289C24.8574 34.8534 26.0043 36.0003 27.4289 36.0003C28.8534 36.0003 30.0003 34.8534 30.0003 33.4289C30.0003 32.0043 28.8534 30.8574 27.4289 30.8574H24.8574V33.4289Z" fill="#ECB22D"/>
<path fill-rule="evenodd" clip-rule="evenodd" d="M33.4289 23.1429H30.8574V20.5714C30.8574 19.1469 32.0043 18 33.4289 18C34.8534 18 36.0003 19.1469 36.0003 20.5714C36.0003 21.996 34.8534 23.1429 33.4289 23.1429Z" fill="#2FB67C"/>
<path fill-rule="evenodd" clip-rule="evenodd" d="M14.5714 24.8574H17.1429V27.4289C17.1429 28.8534 15.996 30.0003 14.5714 30.0003C13.1469 30.0003 12 28.8534 12 27.4289C12 26.0043 13.1469 24.8574 14.5714 24.8574Z" fill="#E01E5A"/>
<path fill-rule="evenodd" clip-rule="evenodd" d="M23.1429 14.5714V17.1429H20.5714C19.1469 17.1429 18 15.996 18 14.5714C18 13.1469 19.1469 12 20.5714 12C21.996 12 23.1429 13.1469 23.1429 14.5714Z" fill="#36C5F1"/>
</svg>
