<svg width="52" height="53" viewBox="0 0 52 53" fill="none" xmlns="http://www.w3.org/2000/svg">
<path d="M0 26.5C0 12.1406 11.6406 0.5 26 0.5C40.3594 0.5 52 12.1406 52 26.5C52 40.8594 40.3594 52.5 26 52.5C11.6406 52.5 0 40.8594 0 26.5Z" fill="#5783FF"/>
<path d="M21.5 26.5V20.5C21.5 19.3065 21.9741 18.1619 22.818 17.318C23.6619 16.4741 24.8065 16 26 16C27.1935 16 28.3381 16.4741 29.182 17.318C30.0259 18.1619 30.5 19.3065 30.5 20.5V26.5C30.5 27.6935 30.0259 28.8381 29.182 29.682C28.3381 30.5259 27.1935 31 26 31C24.8065 31 23.6619 30.5259 22.818 29.682C21.9741 28.8381 21.5 27.6935 21.5 26.5ZM33.5 26.5C33.5 26.3011 33.421 26.1103 33.2803 25.9697C33.1397 25.829 32.9489 25.75 32.75 25.75C32.5511 25.75 32.3603 25.829 32.2197 25.9697C32.079 26.1103 32 26.3011 32 26.5C32 28.0913 31.3679 29.6174 30.2426 30.7426C29.1174 31.8679 27.5913 32.5 26 32.5C24.4087 32.5 22.8826 31.8679 21.7574 30.7426C20.6321 29.6174 20 28.0913 20 26.5C20 26.3011 19.921 26.1103 19.7803 25.9697C19.6397 25.829 19.4489 25.75 19.25 25.75C19.0511 25.75 18.8603 25.829 18.7197 25.9697C18.579 26.1103 18.5 26.3011 18.5 26.5C18.5023 28.3586 19.1937 30.1504 20.4405 31.5288C21.6873 32.9072 23.4009 33.7743 25.25 33.9625V36.25C25.25 36.4489 25.329 36.6397 25.4697 36.7803C25.6103 36.921 25.8011 37 26 37C26.1989 37 26.3897 36.921 26.5303 36.7803C26.671 36.6397 26.75 36.4489 26.75 36.25V33.9625C28.5991 33.7743 30.3127 32.9072 31.5595 31.5288C32.8063 30.1504 33.4977 28.3586 33.5 26.5Z" fill="white"/>
</svg>
