<svg width="52" height="53" viewBox="0 0 52 53" fill="none" xmlns="http://www.w3.org/2000/svg">
<path d="M0 26.5C0 12.1406 11.6406 0.5 26 0.5C40.3594 0.5 52 12.1406 52 26.5C52 40.8594 40.3594 52.5 26 52.5C11.6406 52.5 0 40.8594 0 26.5Z" fill="#22C55E"/>
<path d="M29 24.2499C29 24.8432 28.8241 25.4233 28.4944 25.9166C28.1648 26.41 27.6962 26.7945 27.1481 27.0215C26.5999 27.2486 25.9967 27.308 25.4147 27.1923C24.8328 27.0765 24.2982 26.7908 23.8787 26.3712C23.4591 25.9517 23.1734 25.4171 23.0576 24.8352C22.9419 24.2532 23.0013 23.65 23.2284 23.1019C23.4554 22.5537 23.8399 22.0851 24.3333 21.7555C24.8266 21.4259 25.4067 21.2499 26 21.2499C26.7956 21.2499 27.5587 21.566 28.1213 22.1286C28.6839 22.6912 29 23.4543 29 24.2499ZM35.75 33.9999C35.75 34.1988 35.671 34.3896 35.5303 34.5302C35.3897 34.6709 35.1989 34.7499 35 34.7499H17C16.8011 34.7499 16.6103 34.6709 16.4697 34.5302C16.329 34.3896 16.25 34.1988 16.25 33.9999C16.25 33.801 16.329 33.6102 16.4697 33.4696C16.6103 33.3289 16.8011 33.2499 17 33.2499H25.25V31.7124C23.3355 31.52 21.5682 30.5991 20.3136 29.1403C19.059 27.6815 18.4131 25.7962 18.5094 23.8745C18.6057 21.9528 19.437 20.1416 20.8312 18.8156C22.2254 17.4895 24.0759 16.75 26 16.75C27.9241 16.75 29.7746 17.4895 31.1688 18.8156C32.563 20.1416 33.3943 21.9528 33.4906 23.8745C33.5869 25.7962 32.941 27.6815 31.6864 29.1403C30.4318 30.5991 28.6645 31.52 26.75 31.7124V33.2499H35C35.1989 33.2499 35.3897 33.3289 35.5303 33.4696C35.671 33.6102 35.75 33.801 35.75 33.9999ZM26 28.7499C26.89 28.7499 27.76 28.486 28.5001 27.9915C29.2401 27.4971 29.8169 26.7942 30.1575 25.972C30.4981 25.1497 30.5872 24.2449 30.4135 23.372C30.2399 22.4991 29.8113 21.6973 29.182 21.0679C28.5526 20.4386 27.7508 20.01 26.8779 19.8364C26.005 19.6627 25.1002 19.7519 24.2779 20.0924C23.4557 20.433 22.7529 21.0098 22.2584 21.7498C21.7639 22.4899 21.5 23.3599 21.5 24.2499C21.5012 25.443 21.9757 26.5869 22.8194 27.4305C23.663 28.2742 24.8069 28.7487 26 28.7499Z" fill="white"/>
</svg>
