<svg width="25" height="24" viewBox="0 0 25 24" fill="none" xmlns="http://www.w3.org/2000/svg">
<path d="M21.5 14.25V19.5C21.5 19.8978 21.342 20.2793 21.0607 20.5606C20.7794 20.8419 20.3978 21 20 21H5C4.60218 21 4.22064 20.8419 3.93934 20.5606C3.65804 20.2793 3.5 19.8978 3.5 19.5V14.25C3.5 14.0511 3.57902 13.8603 3.71967 13.7196C3.86032 13.579 4.05109 13.5 4.25 13.5C4.44891 13.5 4.63968 13.579 4.78033 13.7196C4.92098 13.8603 5 14.0511 5 14.25V19.5H20V14.25C20 14.0511 20.079 13.8603 20.2197 13.7196C20.3603 13.579 20.5511 13.5 20.75 13.5C20.9489 13.5 21.1397 13.579 21.2803 13.7196C21.421 13.8603 21.5 14.0511 21.5 14.25ZM8.75 8.24998H11.75V14.25C11.75 14.4489 11.829 14.6397 11.9697 14.7803C12.1103 14.921 12.3011 15 12.5 15C12.6989 15 12.8897 14.921 13.0303 14.7803C13.171 14.6397 13.25 14.4489 13.25 14.25V8.24998H16.25C16.3984 8.2501 16.5435 8.20617 16.667 8.12377C16.7904 8.04137 16.8867 7.92419 16.9435 7.78707C17.0003 7.64996 17.0151 7.49906 16.9861 7.3535C16.9572 7.20794 16.8856 7.07425 16.7806 6.96935L13.0306 3.21935C12.961 3.14962 12.8783 3.0943 12.7872 3.05656C12.6962 3.01882 12.5986 2.99939 12.5 2.99939C12.4014 2.99939 12.3038 3.01882 12.2128 3.05656C12.1217 3.0943 12.039 3.14962 11.9694 3.21935L8.21937 6.96935C8.11437 7.07425 8.04284 7.20794 8.01385 7.3535C7.98487 7.49906 7.99972 7.64996 8.05653 7.78707C8.11335 7.92419 8.20957 8.04137 8.33301 8.12377C8.45646 8.20617 8.60158 8.2501 8.75 8.24998Z" fill="white"/>
</svg>
