<svg width="96" height="96" viewBox="0 0 96 96" fill="none" xmlns="http://www.w3.org/2000/svg">
<path d="M0 48C0 21.4903 21.4903 0 48 0C74.5097 0 96 21.4903 96 48C96 74.5097 74.5097 96 48 96C21.4903 96 0 74.5097 0 48Z" fill="#EEF2FF"/>
<path d="M62.2144 33H32.8878C31.5919 33.0014 30.3495 33.5168 29.4331 34.4331C28.5168 35.3495 28.0014 36.5919 28 37.8878V58.8353C28.0014 60.1312 28.5168 61.3737 29.4331 62.29C30.3495 63.2063 31.5919 63.7217 32.8878 63.7231H62.2144C63.5103 63.7217 64.7527 63.2063 65.669 62.29C66.5854 61.3737 67.1008 60.1312 67.1021 58.8353V37.8878C67.1008 36.5919 66.5854 35.3495 65.669 34.4331C64.7527 33.5168 63.5103 33.0014 62.2144 33ZM60.9767 41.0849L48.4082 50.8604C48.1631 51.051 47.8615 51.1544 47.5511 51.1544C47.2406 51.1544 46.9391 51.051 46.694 50.8604L34.1254 41.0849C33.9778 40.9734 33.8537 40.8336 33.7605 40.6738C33.6673 40.5139 33.6068 40.3371 33.5826 40.1537C33.5583 39.9702 33.5707 39.7838 33.6191 39.6052C33.6675 39.4266 33.751 39.2594 33.8645 39.1133C33.9781 38.9672 34.1196 38.8451 34.2808 38.7542C34.4419 38.6633 34.6196 38.6053 34.8033 38.5836C34.9871 38.5619 35.1733 38.5769 35.3512 38.6279C35.5291 38.6788 35.6952 38.7645 35.8396 38.8802L47.5511 47.9889L59.2625 38.8802C59.5554 38.659 59.9235 38.562 60.2873 38.6102C60.6511 38.6583 60.9813 38.8477 61.2066 39.1374C61.4318 39.4271 61.534 39.7938 61.491 40.1583C61.448 40.5227 61.2632 40.8556 60.9767 41.0849Z" fill="#4F46E5"/>
</svg>
