<svg width="40" height="40" viewBox="0 0 40 40" fill="none" xmlns="http://www.w3.org/2000/svg">
<path d="M0 20C0 8.95431 8.95431 0 20 0C31.0457 0 40 8.95431 40 20C40 31.0457 31.0457 40 20 40C8.95431 40 0 31.0457 0 20Z" fill="#F97316"/>
<path d="M27.5 17.0001C27.5 16.7776 27.566 16.5601 27.6896 16.3751C27.8132 16.1901 27.9889 16.0459 28.1945 15.9607C28.4001 15.8756 28.6263 15.8533 28.8445 15.8967C29.0627 15.9401 29.2632 16.0473 29.4205 16.2046C29.5778 16.3619 29.685 16.5624 29.7284 16.7806C29.7718 16.9989 29.7495 17.2251 29.6644 17.4306C29.5792 17.6362 29.435 17.8119 29.25 17.9355C29.065 18.0591 28.8475 18.1251 28.625 18.1251C28.3266 18.1251 28.0405 18.0066 27.8295 17.7956C27.6185 17.5846 27.5 17.2985 27.5 17.0001ZM26.375 14.7501C26.5975 14.7501 26.815 14.6841 27 14.5605C27.185 14.4369 27.3292 14.2612 27.4144 14.0556C27.4995 13.8501 27.5218 13.6239 27.4784 13.4056C27.435 13.1874 27.3278 12.9869 27.1705 12.8296C27.0132 12.6723 26.8127 12.5651 26.5945 12.5217C26.3763 12.4783 26.1501 12.5006 25.9445 12.5857C25.7389 12.6709 25.5632 12.8151 25.4396 13.0001C25.316 13.1851 25.25 13.4026 25.25 13.6251C25.25 13.9235 25.3685 14.2096 25.5795 14.4206C25.7905 14.6316 26.0766 14.7501 26.375 14.7501ZM29.0619 20.0001C28.8637 19.9838 28.6672 20.0468 28.5155 20.1753C28.3638 20.3038 28.2693 20.4873 28.2528 20.6854C28.1186 22.2533 27.5394 23.7503 26.5832 25.0002C25.6271 26.2501 24.3339 27.2009 22.8557 27.7407C21.3775 28.2806 19.7759 28.387 18.2393 28.0475C16.7027 27.708 15.295 26.9366 14.1819 25.8242C13.0688 24.7118 12.2966 23.3047 11.9561 21.7683C11.6156 20.2319 11.721 18.6302 12.26 17.1517C12.7989 15.6732 13.7489 14.3794 14.9981 13.4224C16.2474 12.4655 17.744 11.8853 19.3119 11.7501C19.4104 11.742 19.5063 11.7145 19.5942 11.6693C19.6821 11.6241 19.7602 11.5621 19.8241 11.4867C19.888 11.4113 19.9364 11.3241 19.9666 11.23C19.9968 11.1359 20.0081 11.0367 20 10.9382C19.9919 10.8397 19.9644 10.7438 19.9192 10.6559C19.8741 10.568 19.812 10.4899 19.7366 10.426C19.6612 10.3621 19.574 10.3137 19.4799 10.2835C19.3858 10.2533 19.2866 10.242 19.1881 10.2501C17.3357 10.4094 15.5672 11.0946 14.0909 12.2248C12.6146 13.3551 11.4917 14.8835 10.8545 16.6302C10.2173 18.3769 10.0923 20.2693 10.494 22.0847C10.8958 23.9001 11.8077 25.563 13.1224 26.8777C14.4372 28.1924 16.1001 29.1043 17.9154 29.5061C19.7308 29.9079 21.6232 29.7828 23.3699 29.1456C25.1166 28.5084 26.645 27.3856 27.7753 25.9092C28.9056 24.4329 29.5907 22.6645 29.75 20.812C29.7585 20.7134 29.7474 20.6142 29.7173 20.5199C29.6873 20.4257 29.6389 20.3383 29.5749 20.2628C29.511 20.1874 29.4327 20.1253 29.3446 20.0802C29.2566 20.0351 29.1605 20.0079 29.0619 20.0001ZM20 13.2501C21.335 13.2501 22.6401 13.646 23.7501 14.3877C24.8601 15.1294 25.7253 16.1836 26.2362 17.417C26.7471 18.6504 26.8808 20.0076 26.6203 21.317C26.3599 22.6263 25.717 23.8291 24.773 24.7731C23.829 25.7171 22.6263 26.36 21.3169 26.6204C20.0075 26.8809 18.6503 26.7472 17.4169 26.2363C16.1835 25.7254 15.1293 24.8602 14.3876 23.7502C13.6459 22.6402 13.25 21.3351 13.25 20.0001C13.252 18.2105 13.9638 16.4948 15.2292 15.2293C16.4947 13.9639 18.2104 13.2521 20 13.2501ZM19.25 20.0001C19.25 20.199 19.329 20.3898 19.4697 20.5304C19.6103 20.6711 19.8011 20.7501 20 20.7501H24.5C24.6989 20.7501 24.8897 20.6711 25.0303 20.5304C25.171 20.3898 25.25 20.199 25.25 20.0001C25.25 19.8012 25.171 19.6104 25.0303 19.4698C24.8897 19.3291 24.6989 19.2501 24.5 19.2501H20.75V15.5001C20.75 15.3012 20.671 15.1104 20.5303 14.9698C20.3897 14.8291 20.1989 14.7501 20 14.7501C19.8011 14.7501 19.6103 14.8291 19.4697 14.9698C19.329 15.1104 19.25 15.3012 19.25 15.5001V20.0001ZM23 12.5001C23.2225 12.5001 23.44 12.4341 23.625 12.3105C23.81 12.1869 23.9542 12.0112 24.0394 11.8056C24.1245 11.6001 24.1468 11.3739 24.1034 11.1556C24.06 10.9374 23.9528 10.7369 23.7955 10.5796C23.6382 10.4223 23.4377 10.3151 23.2195 10.2717C23.0013 10.2283 22.7751 10.2506 22.5695 10.3357C22.3639 10.4209 22.1882 10.5651 22.0646 10.7501C21.941 10.9351 21.875 11.1526 21.875 11.3751C21.875 11.6735 21.9935 11.9596 22.2045 12.1706C22.4155 12.3816 22.7016 12.5001 23 12.5001Z" fill="white"/>
</svg>
