<svg width="40" height="40" viewBox="0 0 40 40" fill="none" xmlns="http://www.w3.org/2000/svg">
<path d="M0 20C0 8.95431 8.95431 0 20 0C31.0457 0 40 8.95431 40 20C40 31.0457 31.0457 40 20 40C8.95431 40 0 31.0457 0 20Z" fill="#EF4444"/>
<path d="M27.5 21.5C27.5019 21.8058 27.409 22.1047 27.2341 22.3555C27.0591 22.6063 26.8107 22.7968 26.5231 22.9006L21.6809 24.6819L19.8997 29.5203C19.7942 29.8069 19.6034 30.0542 19.3529 30.2289C19.1024 30.4036 18.8044 30.4972 18.4991 30.4972C18.1937 30.4972 17.8957 30.4036 17.6452 30.2289C17.3948 30.0542 17.2039 29.8069 17.0984 29.5203L15.3125 24.6875L10.4731 22.9062C10.1866 22.8008 9.93924 22.6099 9.76455 22.3595C9.58985 22.109 9.49619 21.811 9.49619 21.5056C9.49619 21.2003 9.58985 20.9022 9.76455 20.6518C9.93924 20.4013 10.1866 20.2105 10.4731 20.105L15.3153 18.3238L17.0966 13.4853C17.202 13.1987 17.3929 12.9514 17.6433 12.7767C17.8938 12.602 18.1918 12.5084 18.4972 12.5084C18.8025 12.5084 19.1006 12.602 19.351 12.7767C19.6015 12.9514 19.7923 13.1987 19.8978 13.4853L21.6791 18.3275L26.5175 20.1088C26.8047 20.2111 27.0532 20.3998 27.229 20.6488C27.4049 20.8978 27.4995 21.1951 27.5 21.5ZM22.25 12.5H23.75V14C23.75 14.1989 23.829 14.3897 23.9697 14.5303C24.1103 14.671 24.3011 14.75 24.5 14.75C24.6989 14.75 24.8897 14.671 25.0303 14.5303C25.171 14.3897 25.25 14.1989 25.25 14V12.5H26.75C26.9489 12.5 27.1397 12.421 27.2803 12.2803C27.421 12.1397 27.5 11.9489 27.5 11.75C27.5 11.5511 27.421 11.3603 27.2803 11.2197C27.1397 11.079 26.9489 11 26.75 11H25.25V9.5C25.25 9.30109 25.171 9.11032 25.0303 8.96967C24.8897 8.82902 24.6989 8.75 24.5 8.75C24.3011 8.75 24.1103 8.82902 23.9697 8.96967C23.829 9.11032 23.75 9.30109 23.75 9.5V11H22.25C22.0511 11 21.8603 11.079 21.7197 11.2197C21.579 11.3603 21.5 11.5511 21.5 11.75C21.5 11.9489 21.579 12.1397 21.7197 12.2803C21.8603 12.421 22.0511 12.5 22.25 12.5ZM30.5 15.5H29.75V14.75C29.75 14.5511 29.671 14.3603 29.5303 14.2197C29.3897 14.079 29.1989 14 29 14C28.8011 14 28.6103 14.079 28.4697 14.2197C28.329 14.3603 28.25 14.5511 28.25 14.75V15.5H27.5C27.3011 15.5 27.1103 15.579 26.9697 15.7197C26.829 15.8603 26.75 16.0511 26.75 16.25C26.75 16.4489 26.829 16.6397 26.9697 16.7803C27.1103 16.921 27.3011 17 27.5 17H28.25V17.75C28.25 17.9489 28.329 18.1397 28.4697 18.2803C28.6103 18.421 28.8011 18.5 29 18.5C29.1989 18.5 29.3897 18.421 29.5303 18.2803C29.671 18.1397 29.75 17.9489 29.75 17.75V17H30.5C30.6989 17 30.8897 16.921 31.0303 16.7803C31.171 16.6397 31.25 16.4489 31.25 16.25C31.25 16.0511 31.171 15.8603 31.0303 15.7197C30.8897 15.579 30.6989 15.5 30.5 15.5Z" fill="white"/>
</svg>
