<svg width="64" height="64" viewBox="0 0 64 64" fill="none" xmlns="http://www.w3.org/2000/svg">
<path d="M44.4444 54.2223H19.5555C18.141 54.2223 16.7845 53.6604 15.7843 52.6602C14.7841 51.66 14.2222 50.3034 14.2222 48.8889V19.5556L22.2222 9.77783H44.4444C45.8589 9.77783 47.2154 10.3397 48.2156 11.3399C49.2158 12.3401 49.7777 13.6967 49.7777 15.1112V48.8889C49.7777 50.3034 49.2158 51.66 48.2156 52.6602C47.2154 53.6604 45.8589 54.2223 44.4444 54.2223Z" fill="#EF4444"/>
<path d="M22.2222 18.2721C22.2222 18.6125 22.0869 18.939 21.8462 19.1797C21.6055 19.4204 21.279 19.5556 20.9386 19.5556H14.2222L22.2222 9.77783V18.2721Z" fill="#FCA5A5"/>
<path d="M40.8889 41.3333V29.7777C40.8879 28.9529 40.5598 28.1622 39.9765 27.5789C39.3933 26.9957 38.6026 26.6676 37.7778 26.6666H26.2222C25.3974 26.6676 24.6066 26.9957 24.0234 27.5789C23.4402 28.1622 23.1121 28.9529 23.1111 29.7777V41.3333C23.1121 42.1581 23.4402 42.9489 24.0234 43.5321C24.6066 44.1153 25.3974 44.4434 26.2222 44.4444H37.7778C38.6026 44.4434 39.3933 44.1153 39.9765 43.5321C40.5598 42.9489 40.8879 42.1581 40.8889 41.3333ZM35.5555 40V42.6666H32.8889V40H35.5555ZM32.8889 38.2222V32.8888H39.1111V38.2222H32.8889ZM32.8889 31.1111V28.4444H35.5555V31.1111H32.8889ZM31.1111 28.4444V31.1111H28.4444V28.4444H31.1111ZM31.1111 32.8888V38.2222H24.8889V32.8888H31.1111ZM31.1111 40V42.6666H28.4444V40H31.1111ZM37.7778 42.6666H37.3333V40H39.1111V41.3333C39.1107 41.6868 38.9701 42.0257 38.7201 42.2757C38.4702 42.5257 38.1313 42.6663 37.7778 42.6666ZM39.1111 29.7777V31.1111H37.3333V28.4444H37.7778C38.1313 28.4448 38.4702 28.5854 38.7201 28.8353C38.9701 29.0853 39.1107 29.4242 39.1111 29.7777ZM26.2222 28.4444H26.6666V31.1111H24.8889V29.7777C24.8892 29.4242 25.0298 29.0853 25.2798 28.8353C25.5298 28.5854 25.8687 28.4448 26.2222 28.4444ZM24.8889 41.3333V40H26.6666V42.6666H26.2222C25.8687 42.6663 25.5298 42.5257 25.2798 42.2757C25.0298 42.0257 24.8892 41.6868 24.8889 41.3333Z" fill="white"/>
</svg>
